<?xml version="1.0" encoding="utf-8" standalone="no"?>
<!DOCTYPE svg PUBLIC "-//W3C//DTD SVG 1.1//EN"
  "http://www.w3.org/Graphics/SVG/1.1/DTD/svg11.dtd">
<svg xmlns:xlink="http://www.w3.org/1999/xlink" width="1079.789607pt" height="858.967187pt" viewBox="0 0 1079.789607 858.967187" xmlns="http://www.w3.org/2000/svg" version="1.1">
 <metadata>
  <rdf:RDF xmlns:dc="http://purl.org/dc/elements/1.1/" xmlns:cc="http://creativecommons.org/ns#" xmlns:rdf="http://www.w3.org/1999/02/22-rdf-syntax-ns#">
   <cc:Work>
    <dc:type rdf:resource="http://purl.org/dc/dcmitype/StillImage"/>
    <dc:date>2025-06-17T22:26:22.315719</dc:date>
    <dc:format>image/svg+xml</dc:format>
    <dc:creator>
     <cc:Agent>
      <dc:title>Matplotlib v3.10.3, https://matplotlib.org/</dc:title>
     </cc:Agent>
    </dc:creator>
   </cc:Work>
  </rdf:RDF>
 </metadata>
 <defs>
  <style type="text/css">*{stroke-linejoin: round; stroke-linecap: butt}</style>
 </defs>
 <g id="figure_1">
  <g id="patch_1">
   <path d="M 0 858.967187 
L 1079.789607 858.967187 
L 1079.789607 0 
L 0 0 
z
" style="fill: #ffffff"/>
  </g>
  <g id="axes_1">
   <g id="patch_2">
    <path d="M 59.13 383.197187 
L 527.703773 383.197187 
L 527.703773 26.877187 
L 59.13 26.877187 
z
" style="fill: #ffffff"/>
   </g>
   <g id="patch_3">
    <path d="M 80.428808 383.197187 
L 94.628013 383.197187 
L 94.628013 367.03755 
L 80.428808 367.03755 
z
" clip-path="url(#p44c4a1a554)" style="fill: #a20025; opacity: 0.7; stroke: #000000; stroke-linejoin: miter"/>
   </g>
   <g id="patch_4">
    <path d="M 94.628013 383.197187 
L 108.827218 383.197187 
L 108.827218 358.957732 
L 94.628013 358.957732 
z
" clip-path="url(#p44c4a1a554)" style="fill: #a20025; opacity: 0.7; stroke: #000000; stroke-linejoin: miter"/>
   </g>
   <g id="patch_5">
    <path d="M 108.827218 383.197187 
L 123.026424 383.197187 
L 123.026424 334.718276 
L 108.827218 334.718276 
z
" clip-path="url(#p44c4a1a554)" style="fill: #a20025; opacity: 0.7; stroke: #000000; stroke-linejoin: miter"/>
   </g>
   <g id="patch_6">
    <path d="M 123.026424 383.197187 
L 137.225629 383.197187 
L 137.225629 350.877913 
L 123.026424 350.877913 
z
" clip-path="url(#p44c4a1a554)" style="fill: #a20025; opacity: 0.7; stroke: #000000; stroke-linejoin: miter"/>
   </g>
   <g id="patch_7">
    <path d="M 137.225629 383.197187 
L 151.424834 383.197187 
L 151.424834 367.03755 
L 137.225629 367.03755 
z
" clip-path="url(#p44c4a1a554)" style="fill: #a20025; opacity: 0.7; stroke: #000000; stroke-linejoin: miter"/>
   </g>
   <g id="patch_8">
    <path d="M 151.424834 383.197187 
L 165.624039 383.197187 
L 165.624039 350.877913 
L 151.424834 350.877913 
z
" clip-path="url(#p44c4a1a554)" style="fill: #a20025; opacity: 0.7; stroke: #000000; stroke-linejoin: miter"/>
   </g>
   <g id="patch_9">
    <path d="M 165.624039 383.197187 
L 179.823245 383.197187 
L 179.823245 270.079727 
L 165.624039 270.079727 
z
" clip-path="url(#p44c4a1a554)" style="fill: #a20025; opacity: 0.7; stroke: #000000; stroke-linejoin: miter"/>
   </g>
   <g id="patch_10">
    <path d="M 179.823245 383.197187 
L 194.02245 383.197187 
L 194.02245 237.760453 
L 179.823245 237.760453 
z
" clip-path="url(#p44c4a1a554)" style="fill: #a20025; opacity: 0.7; stroke: #000000; stroke-linejoin: miter"/>
   </g>
   <g id="patch_11">
    <path d="M 194.02245 383.197187 
L 208.221655 383.197187 
L 208.221655 189.281541 
L 194.02245 189.281541 
z
" clip-path="url(#p44c4a1a554)" style="fill: #a20025; opacity: 0.7; stroke: #000000; stroke-linejoin: miter"/>
   </g>
   <g id="patch_12">
    <path d="M 208.221655 383.197187 
L 222.42086 383.197187 
L 222.42086 165.042085 
L 208.221655 165.042085 
z
" clip-path="url(#p44c4a1a554)" style="fill: #a20025; opacity: 0.7; stroke: #000000; stroke-linejoin: miter"/>
   </g>
   <g id="patch_13">
    <path d="M 222.42086 383.197187 
L 236.620066 383.197187 
L 236.620066 108.483355 
L 222.42086 108.483355 
z
" clip-path="url(#p44c4a1a554)" style="fill: #a20025; opacity: 0.7; stroke: #000000; stroke-linejoin: miter"/>
   </g>
   <g id="patch_14">
    <path d="M 236.620066 383.197187 
L 250.819271 383.197187 
L 250.819271 189.281541 
L 236.620066 189.281541 
z
" clip-path="url(#p44c4a1a554)" style="fill: #a20025; opacity: 0.7; stroke: #000000; stroke-linejoin: miter"/>
   </g>
   <g id="patch_15">
    <path d="M 250.819271 383.197187 
L 265.018476 383.197187 
L 265.018476 197.36136 
L 250.819271 197.36136 
z
" clip-path="url(#p44c4a1a554)" style="fill: #a20025; opacity: 0.7; stroke: #000000; stroke-linejoin: miter"/>
   </g>
   <g id="patch_16">
    <path d="M 265.018476 383.197187 
L 279.217681 383.197187 
L 279.217681 43.844807 
L 265.018476 43.844807 
z
" clip-path="url(#p44c4a1a554)" style="fill: #a20025; opacity: 0.7; stroke: #000000; stroke-linejoin: miter"/>
   </g>
   <g id="patch_17">
    <path d="M 279.217681 383.197187 
L 293.416887 383.197187 
L 293.416887 108.483355 
L 279.217681 108.483355 
z
" clip-path="url(#p44c4a1a554)" style="fill: #a20025; opacity: 0.7; stroke: #000000; stroke-linejoin: miter"/>
   </g>
   <g id="patch_18">
    <path d="M 293.416887 383.197187 
L 307.616092 383.197187 
L 307.616092 165.042085 
L 293.416887 165.042085 
z
" clip-path="url(#p44c4a1a554)" style="fill: #a20025; opacity: 0.7; stroke: #000000; stroke-linejoin: miter"/>
   </g>
   <g id="patch_19">
    <path d="M 307.616092 383.197187 
L 321.815297 383.197187 
L 321.815297 140.80263 
L 307.616092 140.80263 
z
" clip-path="url(#p44c4a1a554)" style="fill: #a20025; opacity: 0.7; stroke: #000000; stroke-linejoin: miter"/>
   </g>
   <g id="patch_20">
    <path d="M 321.815297 383.197187 
L 336.014503 383.197187 
L 336.014503 229.680634 
L 321.815297 229.680634 
z
" clip-path="url(#p44c4a1a554)" style="fill: #a20025; opacity: 0.7; stroke: #000000; stroke-linejoin: miter"/>
   </g>
   <g id="patch_21">
    <path d="M 336.014503 383.197187 
L 350.213708 383.197187 
L 350.213708 237.760453 
L 336.014503 237.760453 
z
" clip-path="url(#p44c4a1a554)" style="fill: #a20025; opacity: 0.7; stroke: #000000; stroke-linejoin: miter"/>
   </g>
   <g id="patch_22">
    <path d="M 350.213708 383.197187 
L 364.412913 383.197187 
L 364.412913 302.399002 
L 350.213708 302.399002 
z
" clip-path="url(#p44c4a1a554)" style="fill: #a20025; opacity: 0.7; stroke: #000000; stroke-linejoin: miter"/>
   </g>
   <g id="patch_23">
    <path d="M 364.412913 383.197187 
L 378.612118 383.197187 
L 378.612118 286.239364 
L 364.412913 286.239364 
z
" clip-path="url(#p44c4a1a554)" style="fill: #a20025; opacity: 0.7; stroke: #000000; stroke-linejoin: miter"/>
   </g>
   <g id="patch_24">
    <path d="M 378.612118 383.197187 
L 392.811324 383.197187 
L 392.811324 342.798095 
L 378.612118 342.798095 
z
" clip-path="url(#p44c4a1a554)" style="fill: #a20025; opacity: 0.7; stroke: #000000; stroke-linejoin: miter"/>
   </g>
   <g id="patch_25">
    <path d="M 392.811324 383.197187 
L 407.010529 383.197187 
L 407.010529 326.638457 
L 392.811324 326.638457 
z
" clip-path="url(#p44c4a1a554)" style="fill: #a20025; opacity: 0.7; stroke: #000000; stroke-linejoin: miter"/>
   </g>
   <g id="patch_26">
    <path d="M 407.010529 383.197187 
L 421.209734 383.197187 
L 421.209734 383.197187 
L 407.010529 383.197187 
z
" clip-path="url(#p44c4a1a554)" style="fill: #a20025; opacity: 0.7; stroke: #000000; stroke-linejoin: miter"/>
   </g>
   <g id="patch_27">
    <path d="M 421.209734 383.197187 
L 435.408939 383.197187 
L 435.408939 367.03755 
L 421.209734 367.03755 
z
" clip-path="url(#p44c4a1a554)" style="fill: #a20025; opacity: 0.7; stroke: #000000; stroke-linejoin: miter"/>
   </g>
   <g id="patch_28">
    <path d="M 435.408939 383.197187 
L 449.608145 383.197187 
L 449.608145 383.197187 
L 435.408939 383.197187 
z
" clip-path="url(#p44c4a1a554)" style="fill: #a20025; opacity: 0.7; stroke: #000000; stroke-linejoin: miter"/>
   </g>
   <g id="patch_29">
    <path d="M 449.608145 383.197187 
L 463.80735 383.197187 
L 463.80735 383.197187 
L 449.608145 383.197187 
z
" clip-path="url(#p44c4a1a554)" style="fill: #a20025; opacity: 0.7; stroke: #000000; stroke-linejoin: miter"/>
   </g>
   <g id="patch_30">
    <path d="M 463.80735 383.197187 
L 478.006555 383.197187 
L 478.006555 383.197187 
L 463.80735 383.197187 
z
" clip-path="url(#p44c4a1a554)" style="fill: #a20025; opacity: 0.7; stroke: #000000; stroke-linejoin: miter"/>
   </g>
   <g id="patch_31">
    <path d="M 478.006555 383.197187 
L 492.20576 383.197187 
L 492.20576 383.197187 
L 478.006555 383.197187 
z
" clip-path="url(#p44c4a1a554)" style="fill: #a20025; opacity: 0.7; stroke: #000000; stroke-linejoin: miter"/>
   </g>
   <g id="patch_32">
    <path d="M 492.20576 383.197187 
L 506.404966 383.197187 
L 506.404966 375.117369 
L 492.20576 375.117369 
z
" clip-path="url(#p44c4a1a554)" style="fill: #a20025; opacity: 0.7; stroke: #000000; stroke-linejoin: miter"/>
   </g>
   <g id="matplotlib.axis_1">
    <g id="xtick_1">
     <g id="line2d_1">
      <defs>
       <path id="m786e932697" d="M 0 0 
L 0 3.5 
" style="stroke: #000000; stroke-width: 0.8"/>
      </defs>
      <g>
       <use xlink:href="#m786e932697" x="130.54365" y="383.197187" style="stroke: #000000; stroke-width: 0.8"/>
      </g>
     </g>
     <g id="text_1">
      <!-- 20 -->
      <g transform="translate(120.36365 402.354687) scale(0.16 -0.16)">
       <defs>
        <path id="DejaVuSans-32" d="M 1228 531 
L 3431 531 
L 3431 0 
L 469 0 
L 469 531 
Q 828 903 1448 1529 
Q 2069 2156 2228 2338 
Q 2531 2678 2651 2914 
Q 2772 3150 2772 3378 
Q 2772 3750 2511 3984 
Q 2250 4219 1831 4219 
Q 1534 4219 1204 4116 
Q 875 4013 500 3803 
L 500 4441 
Q 881 4594 1212 4672 
Q 1544 4750 1819 4750 
Q 2544 4750 2975 4387 
Q 3406 4025 3406 3419 
Q 3406 3131 3298 2873 
Q 3191 2616 2906 2266 
Q 2828 2175 2409 1742 
Q 1991 1309 1228 531 
z
" transform="scale(0.015625)"/>
        <path id="DejaVuSans-30" d="M 2034 4250 
Q 1547 4250 1301 3770 
Q 1056 3291 1056 2328 
Q 1056 1369 1301 889 
Q 1547 409 2034 409 
Q 2525 409 2770 889 
Q 3016 1369 3016 2328 
Q 3016 3291 2770 3770 
Q 2525 4250 2034 4250 
z
M 2034 4750 
Q 2819 4750 3233 4129 
Q 3647 3509 3647 2328 
Q 3647 1150 3233 529 
Q 2819 -91 2034 -91 
Q 1250 -91 836 529 
Q 422 1150 422 2328 
Q 422 3509 836 4129 
Q 1250 4750 2034 4750 
z
" transform="scale(0.015625)"/>
       </defs>
       <use xlink:href="#DejaVuSans-32"/>
       <use xlink:href="#DejaVuSans-30" transform="translate(63.623047 0)"/>
      </g>
     </g>
    </g>
    <g id="xtick_2">
     <g id="line2d_2">
      <g>
       <use xlink:href="#m786e932697" x="230.773334" y="383.197187" style="stroke: #000000; stroke-width: 0.8"/>
      </g>
     </g>
     <g id="text_2">
      <!-- 40 -->
      <g transform="translate(220.593334 402.354687) scale(0.16 -0.16)">
       <defs>
        <path id="DejaVuSans-34" d="M 2419 4116 
L 825 1625 
L 2419 1625 
L 2419 4116 
z
M 2253 4666 
L 3047 4666 
L 3047 1625 
L 3713 1625 
L 3713 1100 
L 3047 1100 
L 3047 0 
L 2419 0 
L 2419 1100 
L 313 1100 
L 313 1709 
L 2253 4666 
z
" transform="scale(0.015625)"/>
       </defs>
       <use xlink:href="#DejaVuSans-34"/>
       <use xlink:href="#DejaVuSans-30" transform="translate(63.623047 0)"/>
      </g>
     </g>
    </g>
    <g id="xtick_3">
     <g id="line2d_3">
      <g>
       <use xlink:href="#m786e932697" x="331.003018" y="383.197187" style="stroke: #000000; stroke-width: 0.8"/>
      </g>
     </g>
     <g id="text_3">
      <!-- 60 -->
      <g transform="translate(320.823018 402.354687) scale(0.16 -0.16)">
       <defs>
        <path id="DejaVuSans-36" d="M 2113 2584 
Q 1688 2584 1439 2293 
Q 1191 2003 1191 1497 
Q 1191 994 1439 701 
Q 1688 409 2113 409 
Q 2538 409 2786 701 
Q 3034 994 3034 1497 
Q 3034 2003 2786 2293 
Q 2538 2584 2113 2584 
z
M 3366 4563 
L 3366 3988 
Q 3128 4100 2886 4159 
Q 2644 4219 2406 4219 
Q 1781 4219 1451 3797 
Q 1122 3375 1075 2522 
Q 1259 2794 1537 2939 
Q 1816 3084 2150 3084 
Q 2853 3084 3261 2657 
Q 3669 2231 3669 1497 
Q 3669 778 3244 343 
Q 2819 -91 2113 -91 
Q 1303 -91 875 529 
Q 447 1150 447 2328 
Q 447 3434 972 4092 
Q 1497 4750 2381 4750 
Q 2619 4750 2861 4703 
Q 3103 4656 3366 4563 
z
" transform="scale(0.015625)"/>
       </defs>
       <use xlink:href="#DejaVuSans-36"/>
       <use xlink:href="#DejaVuSans-30" transform="translate(63.623047 0)"/>
      </g>
     </g>
    </g>
    <g id="xtick_4">
     <g id="line2d_4">
      <g>
       <use xlink:href="#m786e932697" x="431.232702" y="383.197187" style="stroke: #000000; stroke-width: 0.8"/>
      </g>
     </g>
     <g id="text_4">
      <!-- 80 -->
      <g transform="translate(421.052702 402.354687) scale(0.16 -0.16)">
       <defs>
        <path id="DejaVuSans-38" d="M 2034 2216 
Q 1584 2216 1326 1975 
Q 1069 1734 1069 1313 
Q 1069 891 1326 650 
Q 1584 409 2034 409 
Q 2484 409 2743 651 
Q 3003 894 3003 1313 
Q 3003 1734 2745 1975 
Q 2488 2216 2034 2216 
z
M 1403 2484 
Q 997 2584 770 2862 
Q 544 3141 544 3541 
Q 544 4100 942 4425 
Q 1341 4750 2034 4750 
Q 2731 4750 3128 4425 
Q 3525 4100 3525 3541 
Q 3525 3141 3298 2862 
Q 3072 2584 2669 2484 
Q 3125 2378 3379 2068 
Q 3634 1759 3634 1313 
Q 3634 634 3220 271 
Q 2806 -91 2034 -91 
Q 1263 -91 848 271 
Q 434 634 434 1313 
Q 434 1759 690 2068 
Q 947 2378 1403 2484 
z
M 1172 3481 
Q 1172 3119 1398 2916 
Q 1625 2713 2034 2713 
Q 2441 2713 2670 2916 
Q 2900 3119 2900 3481 
Q 2900 3844 2670 4047 
Q 2441 4250 2034 4250 
Q 1625 4250 1398 4047 
Q 1172 3844 1172 3481 
z
" transform="scale(0.015625)"/>
       </defs>
       <use xlink:href="#DejaVuSans-38"/>
       <use xlink:href="#DejaVuSans-30" transform="translate(63.623047 0)"/>
      </g>
     </g>
    </g>
    <g id="text_5">
     <!-- Number of Bits Set -->
     <g transform="translate(217.788137 421.839687) scale(0.16 -0.16)">
      <defs>
       <path id="DejaVuSans-4e" d="M 628 4666 
L 1478 4666 
L 3547 763 
L 3547 4666 
L 4159 4666 
L 4159 0 
L 3309 0 
L 1241 3903 
L 1241 0 
L 628 0 
L 628 4666 
z
" transform="scale(0.015625)"/>
       <path id="DejaVuSans-75" d="M 544 1381 
L 544 3500 
L 1119 3500 
L 1119 1403 
Q 1119 906 1312 657 
Q 1506 409 1894 409 
Q 2359 409 2629 706 
Q 2900 1003 2900 1516 
L 2900 3500 
L 3475 3500 
L 3475 0 
L 2900 0 
L 2900 538 
Q 2691 219 2414 64 
Q 2138 -91 1772 -91 
Q 1169 -91 856 284 
Q 544 659 544 1381 
z
M 1991 3584 
L 1991 3584 
z
" transform="scale(0.015625)"/>
       <path id="DejaVuSans-6d" d="M 3328 2828 
Q 3544 3216 3844 3400 
Q 4144 3584 4550 3584 
Q 5097 3584 5394 3201 
Q 5691 2819 5691 2113 
L 5691 0 
L 5113 0 
L 5113 2094 
Q 5113 2597 4934 2840 
Q 4756 3084 4391 3084 
Q 3944 3084 3684 2787 
Q 3425 2491 3425 1978 
L 3425 0 
L 2847 0 
L 2847 2094 
Q 2847 2600 2669 2842 
Q 2491 3084 2119 3084 
Q 1678 3084 1418 2786 
Q 1159 2488 1159 1978 
L 1159 0 
L 581 0 
L 581 3500 
L 1159 3500 
L 1159 2956 
Q 1356 3278 1631 3431 
Q 1906 3584 2284 3584 
Q 2666 3584 2933 3390 
Q 3200 3197 3328 2828 
z
" transform="scale(0.015625)"/>
       <path id="DejaVuSans-62" d="M 3116 1747 
Q 3116 2381 2855 2742 
Q 2594 3103 2138 3103 
Q 1681 3103 1420 2742 
Q 1159 2381 1159 1747 
Q 1159 1113 1420 752 
Q 1681 391 2138 391 
Q 2594 391 2855 752 
Q 3116 1113 3116 1747 
z
M 1159 2969 
Q 1341 3281 1617 3432 
Q 1894 3584 2278 3584 
Q 2916 3584 3314 3078 
Q 3713 2572 3713 1747 
Q 3713 922 3314 415 
Q 2916 -91 2278 -91 
Q 1894 -91 1617 61 
Q 1341 213 1159 525 
L 1159 0 
L 581 0 
L 581 4863 
L 1159 4863 
L 1159 2969 
z
" transform="scale(0.015625)"/>
       <path id="DejaVuSans-65" d="M 3597 1894 
L 3597 1613 
L 953 1613 
Q 991 1019 1311 708 
Q 1631 397 2203 397 
Q 2534 397 2845 478 
Q 3156 559 3463 722 
L 3463 178 
Q 3153 47 2828 -22 
Q 2503 -91 2169 -91 
Q 1331 -91 842 396 
Q 353 884 353 1716 
Q 353 2575 817 3079 
Q 1281 3584 2069 3584 
Q 2775 3584 3186 3129 
Q 3597 2675 3597 1894 
z
M 3022 2063 
Q 3016 2534 2758 2815 
Q 2500 3097 2075 3097 
Q 1594 3097 1305 2825 
Q 1016 2553 972 2059 
L 3022 2063 
z
" transform="scale(0.015625)"/>
       <path id="DejaVuSans-72" d="M 2631 2963 
Q 2534 3019 2420 3045 
Q 2306 3072 2169 3072 
Q 1681 3072 1420 2755 
Q 1159 2438 1159 1844 
L 1159 0 
L 581 0 
L 581 3500 
L 1159 3500 
L 1159 2956 
Q 1341 3275 1631 3429 
Q 1922 3584 2338 3584 
Q 2397 3584 2469 3576 
Q 2541 3569 2628 3553 
L 2631 2963 
z
" transform="scale(0.015625)"/>
       <path id="DejaVuSans-20" transform="scale(0.015625)"/>
       <path id="DejaVuSans-6f" d="M 1959 3097 
Q 1497 3097 1228 2736 
Q 959 2375 959 1747 
Q 959 1119 1226 758 
Q 1494 397 1959 397 
Q 2419 397 2687 759 
Q 2956 1122 2956 1747 
Q 2956 2369 2687 2733 
Q 2419 3097 1959 3097 
z
M 1959 3584 
Q 2709 3584 3137 3096 
Q 3566 2609 3566 1747 
Q 3566 888 3137 398 
Q 2709 -91 1959 -91 
Q 1206 -91 779 398 
Q 353 888 353 1747 
Q 353 2609 779 3096 
Q 1206 3584 1959 3584 
z
" transform="scale(0.015625)"/>
       <path id="DejaVuSans-66" d="M 2375 4863 
L 2375 4384 
L 1825 4384 
Q 1516 4384 1395 4259 
Q 1275 4134 1275 3809 
L 1275 3500 
L 2222 3500 
L 2222 3053 
L 1275 3053 
L 1275 0 
L 697 0 
L 697 3053 
L 147 3053 
L 147 3500 
L 697 3500 
L 697 3744 
Q 697 4328 969 4595 
Q 1241 4863 1831 4863 
L 2375 4863 
z
" transform="scale(0.015625)"/>
       <path id="DejaVuSans-42" d="M 1259 2228 
L 1259 519 
L 2272 519 
Q 2781 519 3026 730 
Q 3272 941 3272 1375 
Q 3272 1813 3026 2020 
Q 2781 2228 2272 2228 
L 1259 2228 
z
M 1259 4147 
L 1259 2741 
L 2194 2741 
Q 2656 2741 2882 2914 
Q 3109 3088 3109 3444 
Q 3109 3797 2882 3972 
Q 2656 4147 2194 4147 
L 1259 4147 
z
M 628 4666 
L 2241 4666 
Q 2963 4666 3353 4366 
Q 3744 4066 3744 3513 
Q 3744 3084 3544 2831 
Q 3344 2578 2956 2516 
Q 3422 2416 3680 2098 
Q 3938 1781 3938 1306 
Q 3938 681 3513 340 
Q 3088 0 2303 0 
L 628 0 
L 628 4666 
z
" transform="scale(0.015625)"/>
       <path id="DejaVuSans-69" d="M 603 3500 
L 1178 3500 
L 1178 0 
L 603 0 
L 603 3500 
z
M 603 4863 
L 1178 4863 
L 1178 4134 
L 603 4134 
L 603 4863 
z
" transform="scale(0.015625)"/>
       <path id="DejaVuSans-74" d="M 1172 4494 
L 1172 3500 
L 2356 3500 
L 2356 3053 
L 1172 3053 
L 1172 1153 
Q 1172 725 1289 603 
Q 1406 481 1766 481 
L 2356 481 
L 2356 0 
L 1766 0 
Q 1100 0 847 248 
Q 594 497 594 1153 
L 594 3053 
L 172 3053 
L 172 3500 
L 594 3500 
L 594 4494 
L 1172 4494 
z
" transform="scale(0.015625)"/>
       <path id="DejaVuSans-73" d="M 2834 3397 
L 2834 2853 
Q 2591 2978 2328 3040 
Q 2066 3103 1784 3103 
Q 1356 3103 1142 2972 
Q 928 2841 928 2578 
Q 928 2378 1081 2264 
Q 1234 2150 1697 2047 
L 1894 2003 
Q 2506 1872 2764 1633 
Q 3022 1394 3022 966 
Q 3022 478 2636 193 
Q 2250 -91 1575 -91 
Q 1294 -91 989 -36 
Q 684 19 347 128 
L 347 722 
Q 666 556 975 473 
Q 1284 391 1588 391 
Q 1994 391 2212 530 
Q 2431 669 2431 922 
Q 2431 1156 2273 1281 
Q 2116 1406 1581 1522 
L 1381 1569 
Q 847 1681 609 1914 
Q 372 2147 372 2553 
Q 372 3047 722 3315 
Q 1072 3584 1716 3584 
Q 2034 3584 2315 3537 
Q 2597 3491 2834 3397 
z
" transform="scale(0.015625)"/>
       <path id="DejaVuSans-53" d="M 3425 4513 
L 3425 3897 
Q 3066 4069 2747 4153 
Q 2428 4238 2131 4238 
Q 1616 4238 1336 4038 
Q 1056 3838 1056 3469 
Q 1056 3159 1242 3001 
Q 1428 2844 1947 2747 
L 2328 2669 
Q 3034 2534 3370 2195 
Q 3706 1856 3706 1288 
Q 3706 609 3251 259 
Q 2797 -91 1919 -91 
Q 1588 -91 1214 -16 
Q 841 59 441 206 
L 441 856 
Q 825 641 1194 531 
Q 1563 422 1919 422 
Q 2459 422 2753 634 
Q 3047 847 3047 1241 
Q 3047 1584 2836 1778 
Q 2625 1972 2144 2069 
L 1759 2144 
Q 1053 2284 737 2584 
Q 422 2884 422 3419 
Q 422 4038 858 4394 
Q 1294 4750 2059 4750 
Q 2388 4750 2728 4690 
Q 3069 4631 3425 4513 
z
" transform="scale(0.015625)"/>
      </defs>
      <use xlink:href="#DejaVuSans-4e"/>
      <use xlink:href="#DejaVuSans-75" transform="translate(74.804688 0)"/>
      <use xlink:href="#DejaVuSans-6d" transform="translate(138.183594 0)"/>
      <use xlink:href="#DejaVuSans-62" transform="translate(235.595703 0)"/>
      <use xlink:href="#DejaVuSans-65" transform="translate(299.072266 0)"/>
      <use xlink:href="#DejaVuSans-72" transform="translate(360.595703 0)"/>
      <use xlink:href="#DejaVuSans-20" transform="translate(401.708984 0)"/>
      <use xlink:href="#DejaVuSans-6f" transform="translate(433.496094 0)"/>
      <use xlink:href="#DejaVuSans-66" transform="translate(494.677734 0)"/>
      <use xlink:href="#DejaVuSans-20" transform="translate(529.882812 0)"/>
      <use xlink:href="#DejaVuSans-42" transform="translate(561.669922 0)"/>
      <use xlink:href="#DejaVuSans-69" transform="translate(630.273438 0)"/>
      <use xlink:href="#DejaVuSans-74" transform="translate(658.056641 0)"/>
      <use xlink:href="#DejaVuSans-73" transform="translate(697.265625 0)"/>
      <use xlink:href="#DejaVuSans-20" transform="translate(749.365234 0)"/>
      <use xlink:href="#DejaVuSans-53" transform="translate(781.152344 0)"/>
      <use xlink:href="#DejaVuSans-65" transform="translate(844.628906 0)"/>
      <use xlink:href="#DejaVuSans-74" transform="translate(906.152344 0)"/>
     </g>
    </g>
   </g>
   <g id="matplotlib.axis_2">
    <g id="ytick_1">
     <g id="line2d_5">
      <defs>
       <path id="m05b68238bf" d="M 0 0 
L -3.5 0 
" style="stroke: #000000; stroke-width: 0.8"/>
      </defs>
      <g>
       <use xlink:href="#m05b68238bf" x="59.13" y="383.197187" style="stroke: #000000; stroke-width: 0.8"/>
      </g>
     </g>
     <g id="text_6">
      <!-- 0 -->
      <g transform="translate(41.95 389.275937) scale(0.16 -0.16)">
       <use xlink:href="#DejaVuSans-30"/>
      </g>
     </g>
    </g>
    <g id="ytick_2">
     <g id="line2d_6">
      <g>
       <use xlink:href="#m05b68238bf" x="59.13" y="342.798095" style="stroke: #000000; stroke-width: 0.8"/>
      </g>
     </g>
     <g id="text_7">
      <!-- 5 -->
      <g transform="translate(41.95 348.876845) scale(0.16 -0.16)">
       <defs>
        <path id="DejaVuSans-35" d="M 691 4666 
L 3169 4666 
L 3169 4134 
L 1269 4134 
L 1269 2991 
Q 1406 3038 1543 3061 
Q 1681 3084 1819 3084 
Q 2600 3084 3056 2656 
Q 3513 2228 3513 1497 
Q 3513 744 3044 326 
Q 2575 -91 1722 -91 
Q 1428 -91 1123 -41 
Q 819 9 494 109 
L 494 744 
Q 775 591 1075 516 
Q 1375 441 1709 441 
Q 2250 441 2565 725 
Q 2881 1009 2881 1497 
Q 2881 1984 2565 2268 
Q 2250 2553 1709 2553 
Q 1456 2553 1204 2497 
Q 953 2441 691 2322 
L 691 4666 
z
" transform="scale(0.015625)"/>
       </defs>
       <use xlink:href="#DejaVuSans-35"/>
      </g>
     </g>
    </g>
    <g id="ytick_3">
     <g id="line2d_7">
      <g>
       <use xlink:href="#m05b68238bf" x="59.13" y="302.399002" style="stroke: #000000; stroke-width: 0.8"/>
      </g>
     </g>
     <g id="text_8">
      <!-- 10 -->
      <g transform="translate(31.77 308.477752) scale(0.16 -0.16)">
       <defs>
        <path id="DejaVuSans-31" d="M 794 531 
L 1825 531 
L 1825 4091 
L 703 3866 
L 703 4441 
L 1819 4666 
L 2450 4666 
L 2450 531 
L 3481 531 
L 3481 0 
L 794 0 
L 794 531 
z
" transform="scale(0.015625)"/>
       </defs>
       <use xlink:href="#DejaVuSans-31"/>
       <use xlink:href="#DejaVuSans-30" transform="translate(63.623047 0)"/>
      </g>
     </g>
    </g>
    <g id="ytick_4">
     <g id="line2d_8">
      <g>
       <use xlink:href="#m05b68238bf" x="59.13" y="261.999909" style="stroke: #000000; stroke-width: 0.8"/>
      </g>
     </g>
     <g id="text_9">
      <!-- 15 -->
      <g transform="translate(31.77 268.078659) scale(0.16 -0.16)">
       <use xlink:href="#DejaVuSans-31"/>
       <use xlink:href="#DejaVuSans-35" transform="translate(63.623047 0)"/>
      </g>
     </g>
    </g>
    <g id="ytick_5">
     <g id="line2d_9">
      <g>
       <use xlink:href="#m05b68238bf" x="59.13" y="221.600816" style="stroke: #000000; stroke-width: 0.8"/>
      </g>
     </g>
     <g id="text_10">
      <!-- 20 -->
      <g transform="translate(31.77 227.679566) scale(0.16 -0.16)">
       <use xlink:href="#DejaVuSans-32"/>
       <use xlink:href="#DejaVuSans-30" transform="translate(63.623047 0)"/>
      </g>
     </g>
    </g>
    <g id="ytick_6">
     <g id="line2d_10">
      <g>
       <use xlink:href="#m05b68238bf" x="59.13" y="181.201723" style="stroke: #000000; stroke-width: 0.8"/>
      </g>
     </g>
     <g id="text_11">
      <!-- 25 -->
      <g transform="translate(31.77 187.280473) scale(0.16 -0.16)">
       <use xlink:href="#DejaVuSans-32"/>
       <use xlink:href="#DejaVuSans-35" transform="translate(63.623047 0)"/>
      </g>
     </g>
    </g>
    <g id="ytick_7">
     <g id="line2d_11">
      <g>
       <use xlink:href="#m05b68238bf" x="59.13" y="140.80263" style="stroke: #000000; stroke-width: 0.8"/>
      </g>
     </g>
     <g id="text_12">
      <!-- 30 -->
      <g transform="translate(31.77 146.88138) scale(0.16 -0.16)">
       <defs>
        <path id="DejaVuSans-33" d="M 2597 2516 
Q 3050 2419 3304 2112 
Q 3559 1806 3559 1356 
Q 3559 666 3084 287 
Q 2609 -91 1734 -91 
Q 1441 -91 1130 -33 
Q 819 25 488 141 
L 488 750 
Q 750 597 1062 519 
Q 1375 441 1716 441 
Q 2309 441 2620 675 
Q 2931 909 2931 1356 
Q 2931 1769 2642 2001 
Q 2353 2234 1838 2234 
L 1294 2234 
L 1294 2753 
L 1863 2753 
Q 2328 2753 2575 2939 
Q 2822 3125 2822 3475 
Q 2822 3834 2567 4026 
Q 2313 4219 1838 4219 
Q 1578 4219 1281 4162 
Q 984 4106 628 3988 
L 628 4550 
Q 988 4650 1302 4700 
Q 1616 4750 1894 4750 
Q 2613 4750 3031 4423 
Q 3450 4097 3450 3541 
Q 3450 3153 3228 2886 
Q 3006 2619 2597 2516 
z
" transform="scale(0.015625)"/>
       </defs>
       <use xlink:href="#DejaVuSans-33"/>
       <use xlink:href="#DejaVuSans-30" transform="translate(63.623047 0)"/>
      </g>
     </g>
    </g>
    <g id="ytick_8">
     <g id="line2d_12">
      <g>
       <use xlink:href="#m05b68238bf" x="59.13" y="100.403537" style="stroke: #000000; stroke-width: 0.8"/>
      </g>
     </g>
     <g id="text_13">
      <!-- 35 -->
      <g transform="translate(31.77 106.482287) scale(0.16 -0.16)">
       <use xlink:href="#DejaVuSans-33"/>
       <use xlink:href="#DejaVuSans-35" transform="translate(63.623047 0)"/>
      </g>
     </g>
    </g>
    <g id="ytick_9">
     <g id="line2d_13">
      <g>
       <use xlink:href="#m05b68238bf" x="59.13" y="60.004444" style="stroke: #000000; stroke-width: 0.8"/>
      </g>
     </g>
     <g id="text_14">
      <!-- 40 -->
      <g transform="translate(31.77 66.083194) scale(0.16 -0.16)">
       <use xlink:href="#DejaVuSans-34"/>
       <use xlink:href="#DejaVuSans-30" transform="translate(63.623047 0)"/>
      </g>
     </g>
    </g>
    <g id="text_15">
     <!-- Frequency -->
     <g transform="translate(24.4425 246.364687) rotate(-90) scale(0.16 -0.16)">
      <defs>
       <path id="DejaVuSans-46" d="M 628 4666 
L 3309 4666 
L 3309 4134 
L 1259 4134 
L 1259 2759 
L 3109 2759 
L 3109 2228 
L 1259 2228 
L 1259 0 
L 628 0 
L 628 4666 
z
" transform="scale(0.015625)"/>
       <path id="DejaVuSans-71" d="M 947 1747 
Q 947 1113 1208 752 
Q 1469 391 1925 391 
Q 2381 391 2643 752 
Q 2906 1113 2906 1747 
Q 2906 2381 2643 2742 
Q 2381 3103 1925 3103 
Q 1469 3103 1208 2742 
Q 947 2381 947 1747 
z
M 2906 525 
Q 2725 213 2448 61 
Q 2172 -91 1784 -91 
Q 1150 -91 751 415 
Q 353 922 353 1747 
Q 353 2572 751 3078 
Q 1150 3584 1784 3584 
Q 2172 3584 2448 3432 
Q 2725 3281 2906 2969 
L 2906 3500 
L 3481 3500 
L 3481 -1331 
L 2906 -1331 
L 2906 525 
z
" transform="scale(0.015625)"/>
       <path id="DejaVuSans-6e" d="M 3513 2113 
L 3513 0 
L 2938 0 
L 2938 2094 
Q 2938 2591 2744 2837 
Q 2550 3084 2163 3084 
Q 1697 3084 1428 2787 
Q 1159 2491 1159 1978 
L 1159 0 
L 581 0 
L 581 3500 
L 1159 3500 
L 1159 2956 
Q 1366 3272 1645 3428 
Q 1925 3584 2291 3584 
Q 2894 3584 3203 3211 
Q 3513 2838 3513 2113 
z
" transform="scale(0.015625)"/>
       <path id="DejaVuSans-63" d="M 3122 3366 
L 3122 2828 
Q 2878 2963 2633 3030 
Q 2388 3097 2138 3097 
Q 1578 3097 1268 2742 
Q 959 2388 959 1747 
Q 959 1106 1268 751 
Q 1578 397 2138 397 
Q 2388 397 2633 464 
Q 2878 531 3122 666 
L 3122 134 
Q 2881 22 2623 -34 
Q 2366 -91 2075 -91 
Q 1284 -91 818 406 
Q 353 903 353 1747 
Q 353 2603 823 3093 
Q 1294 3584 2113 3584 
Q 2378 3584 2631 3529 
Q 2884 3475 3122 3366 
z
" transform="scale(0.015625)"/>
       <path id="DejaVuSans-79" d="M 2059 -325 
Q 1816 -950 1584 -1140 
Q 1353 -1331 966 -1331 
L 506 -1331 
L 506 -850 
L 844 -850 
Q 1081 -850 1212 -737 
Q 1344 -625 1503 -206 
L 1606 56 
L 191 3500 
L 800 3500 
L 1894 763 
L 2988 3500 
L 3597 3500 
L 2059 -325 
z
" transform="scale(0.015625)"/>
      </defs>
      <use xlink:href="#DejaVuSans-46"/>
      <use xlink:href="#DejaVuSans-72" transform="translate(50.269531 0)"/>
      <use xlink:href="#DejaVuSans-65" transform="translate(89.132812 0)"/>
      <use xlink:href="#DejaVuSans-71" transform="translate(150.65625 0)"/>
      <use xlink:href="#DejaVuSans-75" transform="translate(214.132812 0)"/>
      <use xlink:href="#DejaVuSans-65" transform="translate(277.511719 0)"/>
      <use xlink:href="#DejaVuSans-6e" transform="translate(339.035156 0)"/>
      <use xlink:href="#DejaVuSans-63" transform="translate(402.414062 0)"/>
      <use xlink:href="#DejaVuSans-79" transform="translate(457.394531 0)"/>
     </g>
    </g>
   </g>
   <g id="patch_33">
    <path d="M 59.13 383.197187 
L 59.13 26.877187 
" style="fill: none; stroke: #000000; stroke-width: 0.8; stroke-linejoin: miter; stroke-linecap: square"/>
   </g>
   <g id="patch_34">
    <path d="M 527.703773 383.197187 
L 527.703773 26.877187 
" style="fill: none; stroke: #000000; stroke-width: 0.8; stroke-linejoin: miter; stroke-linecap: square"/>
   </g>
   <g id="patch_35">
    <path d="M 59.13 383.197187 
L 527.703773 383.197187 
" style="fill: none; stroke: #000000; stroke-width: 0.8; stroke-linejoin: miter; stroke-linecap: square"/>
   </g>
   <g id="patch_36">
    <path d="M 59.13 26.877187 
L 527.703773 26.877187 
" style="fill: none; stroke: #000000; stroke-width: 0.8; stroke-linejoin: miter; stroke-linecap: square"/>
   </g>
   <g id="text_16">
    <!-- Distribution of Bits per Molecule -->
    <g transform="translate(148.952824 20.877187) scale(0.18 -0.18)">
     <defs>
      <path id="DejaVuSans-44" d="M 1259 4147 
L 1259 519 
L 2022 519 
Q 2988 519 3436 956 
Q 3884 1394 3884 2338 
Q 3884 3275 3436 3711 
Q 2988 4147 2022 4147 
L 1259 4147 
z
M 628 4666 
L 1925 4666 
Q 3281 4666 3915 4102 
Q 4550 3538 4550 2338 
Q 4550 1131 3912 565 
Q 3275 0 1925 0 
L 628 0 
L 628 4666 
z
" transform="scale(0.015625)"/>
      <path id="DejaVuSans-70" d="M 1159 525 
L 1159 -1331 
L 581 -1331 
L 581 3500 
L 1159 3500 
L 1159 2969 
Q 1341 3281 1617 3432 
Q 1894 3584 2278 3584 
Q 2916 3584 3314 3078 
Q 3713 2572 3713 1747 
Q 3713 922 3314 415 
Q 2916 -91 2278 -91 
Q 1894 -91 1617 61 
Q 1341 213 1159 525 
z
M 3116 1747 
Q 3116 2381 2855 2742 
Q 2594 3103 2138 3103 
Q 1681 3103 1420 2742 
Q 1159 2381 1159 1747 
Q 1159 1113 1420 752 
Q 1681 391 2138 391 
Q 2594 391 2855 752 
Q 3116 1113 3116 1747 
z
" transform="scale(0.015625)"/>
      <path id="DejaVuSans-4d" d="M 628 4666 
L 1569 4666 
L 2759 1491 
L 3956 4666 
L 4897 4666 
L 4897 0 
L 4281 0 
L 4281 4097 
L 3078 897 
L 2444 897 
L 1241 4097 
L 1241 0 
L 628 0 
L 628 4666 
z
" transform="scale(0.015625)"/>
      <path id="DejaVuSans-6c" d="M 603 4863 
L 1178 4863 
L 1178 0 
L 603 0 
L 603 4863 
z
" transform="scale(0.015625)"/>
     </defs>
     <use xlink:href="#DejaVuSans-44"/>
     <use xlink:href="#DejaVuSans-69" transform="translate(77.001953 0)"/>
     <use xlink:href="#DejaVuSans-73" transform="translate(104.785156 0)"/>
     <use xlink:href="#DejaVuSans-74" transform="translate(156.884766 0)"/>
     <use xlink:href="#DejaVuSans-72" transform="translate(196.09375 0)"/>
     <use xlink:href="#DejaVuSans-69" transform="translate(237.207031 0)"/>
     <use xlink:href="#DejaVuSans-62" transform="translate(264.990234 0)"/>
     <use xlink:href="#DejaVuSans-75" transform="translate(328.466797 0)"/>
     <use xlink:href="#DejaVuSans-74" transform="translate(391.845703 0)"/>
     <use xlink:href="#DejaVuSans-69" transform="translate(431.054688 0)"/>
     <use xlink:href="#DejaVuSans-6f" transform="translate(458.837891 0)"/>
     <use xlink:href="#DejaVuSans-6e" transform="translate(520.019531 0)"/>
     <use xlink:href="#DejaVuSans-20" transform="translate(583.398438 0)"/>
     <use xlink:href="#DejaVuSans-6f" transform="translate(615.185547 0)"/>
     <use xlink:href="#DejaVuSans-66" transform="translate(676.367188 0)"/>
     <use xlink:href="#DejaVuSans-20" transform="translate(711.572266 0)"/>
     <use xlink:href="#DejaVuSans-42" transform="translate(743.359375 0)"/>
     <use xlink:href="#DejaVuSans-69" transform="translate(811.962891 0)"/>
     <use xlink:href="#DejaVuSans-74" transform="translate(839.746094 0)"/>
     <use xlink:href="#DejaVuSans-73" transform="translate(878.955078 0)"/>
     <use xlink:href="#DejaVuSans-20" transform="translate(931.054688 0)"/>
     <use xlink:href="#DejaVuSans-70" transform="translate(962.841797 0)"/>
     <use xlink:href="#DejaVuSans-65" transform="translate(1026.318359 0)"/>
     <use xlink:href="#DejaVuSans-72" transform="translate(1087.841797 0)"/>
     <use xlink:href="#DejaVuSans-20" transform="translate(1128.955078 0)"/>
     <use xlink:href="#DejaVuSans-4d" transform="translate(1160.742188 0)"/>
     <use xlink:href="#DejaVuSans-6f" transform="translate(1247.021484 0)"/>
     <use xlink:href="#DejaVuSans-6c" transform="translate(1308.203125 0)"/>
     <use xlink:href="#DejaVuSans-65" transform="translate(1335.986328 0)"/>
     <use xlink:href="#DejaVuSans-63" transform="translate(1397.509766 0)"/>
     <use xlink:href="#DejaVuSans-75" transform="translate(1452.490234 0)"/>
     <use xlink:href="#DejaVuSans-6c" transform="translate(1515.869141 0)"/>
     <use xlink:href="#DejaVuSans-65" transform="translate(1543.652344 0)"/>
    </g>
   </g>
  </g>
  <g id="axes_2">
   <g id="patch_37">
    <path d="M 594.593773 383.197187 
L 1063.167547 383.197187 
L 1063.167547 26.877187 
L 594.593773 26.877187 
z
" style="fill: #ffffff"/>
   </g>
   <g id="patch_38">
    <path d="M 615.892581 101838.801165 
L 624.412105 101838.801165 
L 624.412105 43.073551 
L 615.892581 43.073551 
z
" clip-path="url(#pb9a1e09f7b)" style="fill: #a20025; opacity: 0.7; stroke: #000000; stroke-linejoin: miter"/>
   </g>
   <g id="patch_39">
    <path d="M 624.412105 101838.801165 
L 632.931628 101838.801165 
L 632.931628 124.209556 
L 624.412105 124.209556 
z
" clip-path="url(#pb9a1e09f7b)" style="fill: #a20025; opacity: 0.7; stroke: #000000; stroke-linejoin: miter"/>
   </g>
   <g id="patch_40">
    <path d="M 632.931628 101838.801165 
L 641.451151 101838.801165 
L 641.451151 174.445187 
L 632.931628 174.445187 
z
" clip-path="url(#pb9a1e09f7b)" style="fill: #a20025; opacity: 0.7; stroke: #000000; stroke-linejoin: miter"/>
   </g>
   <g id="patch_41">
    <path d="M 641.451151 101838.801165 
L 649.970674 101838.801165 
L 649.970674 191.21171 
L 641.451151 191.21171 
z
" clip-path="url(#pb9a1e09f7b)" style="fill: #a20025; opacity: 0.7; stroke: #000000; stroke-linejoin: miter"/>
   </g>
   <g id="patch_42">
    <path d="M 649.970674 101838.801165 
L 658.490197 101838.801165 
L 658.490197 220.155093 
L 649.970674 220.155093 
z
" clip-path="url(#pb9a1e09f7b)" style="fill: #a20025; opacity: 0.7; stroke: #000000; stroke-linejoin: miter"/>
   </g>
   <g id="patch_43">
    <path d="M 658.490197 101838.801165 
L 667.00972 101838.801165 
L 667.00972 234.982968 
L 658.490197 234.982968 
z
" clip-path="url(#pb9a1e09f7b)" style="fill: #a20025; opacity: 0.7; stroke: #000000; stroke-linejoin: miter"/>
   </g>
   <g id="patch_44">
    <path d="M 667.00972 101838.801165 
L 675.529243 101838.801165 
L 675.529243 250.701149 
L 667.00972 250.701149 
z
" clip-path="url(#pb9a1e09f7b)" style="fill: #a20025; opacity: 0.7; stroke: #000000; stroke-linejoin: miter"/>
   </g>
   <g id="patch_45">
    <path d="M 675.529243 101838.801165 
L 684.048767 101838.801165 
L 684.048767 296.075079 
L 675.529243 296.075079 
z
" clip-path="url(#pb9a1e09f7b)" style="fill: #a20025; opacity: 0.7; stroke: #000000; stroke-linejoin: miter"/>
   </g>
   <g id="patch_46">
    <path d="M 684.048767 101838.801165 
L 692.56829 101838.801165 
L 692.56829 288.040416 
L 684.048767 288.040416 
z
" clip-path="url(#pb9a1e09f7b)" style="fill: #a20025; opacity: 0.7; stroke: #000000; stroke-linejoin: miter"/>
   </g>
   <g id="patch_47">
    <path d="M 692.56829 101838.801165 
L 701.087813 101838.801165 
L 701.087813 305.908713 
L 692.56829 305.908713 
z
" clip-path="url(#pb9a1e09f7b)" style="fill: #a20025; opacity: 0.7; stroke: #000000; stroke-linejoin: miter"/>
   </g>
   <g id="patch_48">
    <path d="M 701.087813 101838.801165 
L 709.607336 101838.801165 
L 709.607336 336.454768 
L 701.087813 336.454768 
z
" clip-path="url(#pb9a1e09f7b)" style="fill: #a20025; opacity: 0.7; stroke: #000000; stroke-linejoin: miter"/>
   </g>
   <g id="patch_49">
    <path d="M 709.607336 101838.801165 
L 718.126859 101838.801165 
L 718.126859 318.586471 
L 709.607336 318.586471 
z
" clip-path="url(#pb9a1e09f7b)" style="fill: #a20025; opacity: 0.7; stroke: #000000; stroke-linejoin: miter"/>
   </g>
   <g id="patch_50">
    <path d="M 718.126859 101838.801165 
L 726.646382 101838.801165 
L 726.646382 318.586471 
L 718.126859 318.586471 
z
" clip-path="url(#pb9a1e09f7b)" style="fill: #a20025; opacity: 0.7; stroke: #000000; stroke-linejoin: miter"/>
   </g>
   <g id="patch_51">
    <path d="M 726.646382 101838.801165 
L 735.165906 101838.801165 
L 735.165906 305.908713 
L 726.646382 305.908713 
z
" clip-path="url(#pb9a1e09f7b)" style="fill: #a20025; opacity: 0.7; stroke: #000000; stroke-linejoin: miter"/>
   </g>
   <g id="patch_52">
    <path d="M 735.165906 101838.801165 
L 743.685429 101838.801165 
L 743.685429 367.000824 
L 735.165906 367.000824 
z
" clip-path="url(#pb9a1e09f7b)" style="fill: #a20025; opacity: 0.7; stroke: #000000; stroke-linejoin: miter"/>
   </g>
   <g id="patch_53">
    <path d="M 743.685429 101838.801165 
L 752.204952 101838.801165 
L 752.204952 336.454768 
L 743.685429 336.454768 
z
" clip-path="url(#pb9a1e09f7b)" style="fill: #a20025; opacity: 0.7; stroke: #000000; stroke-linejoin: miter"/>
   </g>
   <g id="patch_54">
    <path d="M 752.204952 101838.801165 
L 760.724475 101838.801165 
L 760.724475 367.000824 
L 752.204952 367.000824 
z
" clip-path="url(#pb9a1e09f7b)" style="fill: #a20025; opacity: 0.7; stroke: #000000; stroke-linejoin: miter"/>
   </g>
   <g id="patch_55">
    <path d="M 760.724475 101838.801165 
L 769.243998 101838.801165 
L 769.243998 336.454768 
L 760.724475 336.454768 
z
" clip-path="url(#pb9a1e09f7b)" style="fill: #a20025; opacity: 0.7; stroke: #000000; stroke-linejoin: miter"/>
   </g>
   <g id="patch_56">
    <path d="M 769.243998 101838.801165 
L 777.763521 101838.801165 
L 777.763521 101838.801165 
L 769.243998 101838.801165 
z
" clip-path="url(#pb9a1e09f7b)" style="fill: #a20025; opacity: 0.7; stroke: #000000; stroke-linejoin: miter"/>
   </g>
   <g id="patch_57">
    <path d="M 777.763521 101838.801165 
L 786.283044 101838.801165 
L 786.283044 336.454768 
L 777.763521 336.454768 
z
" clip-path="url(#pb9a1e09f7b)" style="fill: #a20025; opacity: 0.7; stroke: #000000; stroke-linejoin: miter"/>
   </g>
   <g id="patch_58">
    <path d="M 786.283044 101838.801165 
L 794.802568 101838.801165 
L 794.802568 367.000824 
L 786.283044 367.000824 
z
" clip-path="url(#pb9a1e09f7b)" style="fill: #a20025; opacity: 0.7; stroke: #000000; stroke-linejoin: miter"/>
   </g>
   <g id="patch_59">
    <path d="M 794.802568 101838.801165 
L 803.322091 101838.801165 
L 803.322091 367.000824 
L 794.802568 367.000824 
z
" clip-path="url(#pb9a1e09f7b)" style="fill: #a20025; opacity: 0.7; stroke: #000000; stroke-linejoin: miter"/>
   </g>
   <g id="patch_60">
    <path d="M 803.322091 101838.801165 
L 811.841614 101838.801165 
L 811.841614 101838.801165 
L 803.322091 101838.801165 
z
" clip-path="url(#pb9a1e09f7b)" style="fill: #a20025; opacity: 0.7; stroke: #000000; stroke-linejoin: miter"/>
   </g>
   <g id="patch_61">
    <path d="M 811.841614 101838.801165 
L 820.361137 101838.801165 
L 820.361137 101838.801165 
L 811.841614 101838.801165 
z
" clip-path="url(#pb9a1e09f7b)" style="fill: #a20025; opacity: 0.7; stroke: #000000; stroke-linejoin: miter"/>
   </g>
   <g id="patch_62">
    <path d="M 820.361137 101838.801165 
L 828.88066 101838.801165 
L 828.88066 101838.801165 
L 820.361137 101838.801165 
z
" clip-path="url(#pb9a1e09f7b)" style="fill: #a20025; opacity: 0.7; stroke: #000000; stroke-linejoin: miter"/>
   </g>
   <g id="patch_63">
    <path d="M 828.88066 101838.801165 
L 837.400183 101838.801165 
L 837.400183 336.454768 
L 828.88066 336.454768 
z
" clip-path="url(#pb9a1e09f7b)" style="fill: #a20025; opacity: 0.7; stroke: #000000; stroke-linejoin: miter"/>
   </g>
   <g id="patch_64">
    <path d="M 837.400183 101838.801165 
L 845.919707 101838.801165 
L 845.919707 101838.801165 
L 837.400183 101838.801165 
z
" clip-path="url(#pb9a1e09f7b)" style="fill: #a20025; opacity: 0.7; stroke: #000000; stroke-linejoin: miter"/>
   </g>
   <g id="patch_65">
    <path d="M 845.919707 101838.801165 
L 854.43923 101838.801165 
L 854.43923 101838.801165 
L 845.919707 101838.801165 
z
" clip-path="url(#pb9a1e09f7b)" style="fill: #a20025; opacity: 0.7; stroke: #000000; stroke-linejoin: miter"/>
   </g>
   <g id="patch_66">
    <path d="M 854.43923 101838.801165 
L 862.958753 101838.801165 
L 862.958753 101838.801165 
L 854.43923 101838.801165 
z
" clip-path="url(#pb9a1e09f7b)" style="fill: #a20025; opacity: 0.7; stroke: #000000; stroke-linejoin: miter"/>
   </g>
   <g id="patch_67">
    <path d="M 862.958753 101838.801165 
L 871.478276 101838.801165 
L 871.478276 367.000824 
L 862.958753 367.000824 
z
" clip-path="url(#pb9a1e09f7b)" style="fill: #a20025; opacity: 0.7; stroke: #000000; stroke-linejoin: miter"/>
   </g>
   <g id="patch_68">
    <path d="M 871.478276 101838.801165 
L 879.997799 101838.801165 
L 879.997799 367.000824 
L 871.478276 367.000824 
z
" clip-path="url(#pb9a1e09f7b)" style="fill: #a20025; opacity: 0.7; stroke: #000000; stroke-linejoin: miter"/>
   </g>
   <g id="patch_69">
    <path d="M 879.997799 101838.801165 
L 888.517322 101838.801165 
L 888.517322 367.000824 
L 879.997799 367.000824 
z
" clip-path="url(#pb9a1e09f7b)" style="fill: #a20025; opacity: 0.7; stroke: #000000; stroke-linejoin: miter"/>
   </g>
   <g id="patch_70">
    <path d="M 888.517322 101838.801165 
L 897.036845 101838.801165 
L 897.036845 367.000824 
L 888.517322 367.000824 
z
" clip-path="url(#pb9a1e09f7b)" style="fill: #a20025; opacity: 0.7; stroke: #000000; stroke-linejoin: miter"/>
   </g>
   <g id="patch_71">
    <path d="M 897.036845 101838.801165 
L 905.556369 101838.801165 
L 905.556369 101838.801165 
L 897.036845 101838.801165 
z
" clip-path="url(#pb9a1e09f7b)" style="fill: #a20025; opacity: 0.7; stroke: #000000; stroke-linejoin: miter"/>
   </g>
   <g id="patch_72">
    <path d="M 905.556369 101838.801165 
L 914.075892 101838.801165 
L 914.075892 367.000824 
L 905.556369 367.000824 
z
" clip-path="url(#pb9a1e09f7b)" style="fill: #a20025; opacity: 0.7; stroke: #000000; stroke-linejoin: miter"/>
   </g>
   <g id="patch_73">
    <path d="M 914.075892 101838.801165 
L 922.595415 101838.801165 
L 922.595415 336.454768 
L 914.075892 336.454768 
z
" clip-path="url(#pb9a1e09f7b)" style="fill: #a20025; opacity: 0.7; stroke: #000000; stroke-linejoin: miter"/>
   </g>
   <g id="patch_74">
    <path d="M 922.595415 101838.801165 
L 931.114938 101838.801165 
L 931.114938 101838.801165 
L 922.595415 101838.801165 
z
" clip-path="url(#pb9a1e09f7b)" style="fill: #a20025; opacity: 0.7; stroke: #000000; stroke-linejoin: miter"/>
   </g>
   <g id="patch_75">
    <path d="M 931.114938 101838.801165 
L 939.634461 101838.801165 
L 939.634461 101838.801165 
L 931.114938 101838.801165 
z
" clip-path="url(#pb9a1e09f7b)" style="fill: #a20025; opacity: 0.7; stroke: #000000; stroke-linejoin: miter"/>
   </g>
   <g id="patch_76">
    <path d="M 939.634461 101838.801165 
L 948.153984 101838.801165 
L 948.153984 101838.801165 
L 939.634461 101838.801165 
z
" clip-path="url(#pb9a1e09f7b)" style="fill: #a20025; opacity: 0.7; stroke: #000000; stroke-linejoin: miter"/>
   </g>
   <g id="patch_77">
    <path d="M 948.153984 101838.801165 
L 956.673508 101838.801165 
L 956.673508 101838.801165 
L 948.153984 101838.801165 
z
" clip-path="url(#pb9a1e09f7b)" style="fill: #a20025; opacity: 0.7; stroke: #000000; stroke-linejoin: miter"/>
   </g>
   <g id="patch_78">
    <path d="M 956.673508 101838.801165 
L 965.193031 101838.801165 
L 965.193031 101838.801165 
L 956.673508 101838.801165 
z
" clip-path="url(#pb9a1e09f7b)" style="fill: #a20025; opacity: 0.7; stroke: #000000; stroke-linejoin: miter"/>
   </g>
   <g id="patch_79">
    <path d="M 965.193031 101838.801165 
L 973.712554 101838.801165 
L 973.712554 101838.801165 
L 965.193031 101838.801165 
z
" clip-path="url(#pb9a1e09f7b)" style="fill: #a20025; opacity: 0.7; stroke: #000000; stroke-linejoin: miter"/>
   </g>
   <g id="patch_80">
    <path d="M 973.712554 101838.801165 
L 982.232077 101838.801165 
L 982.232077 101838.801165 
L 973.712554 101838.801165 
z
" clip-path="url(#pb9a1e09f7b)" style="fill: #a20025; opacity: 0.7; stroke: #000000; stroke-linejoin: miter"/>
   </g>
   <g id="patch_81">
    <path d="M 982.232077 101838.801165 
L 990.7516 101838.801165 
L 990.7516 367.000824 
L 982.232077 367.000824 
z
" clip-path="url(#pb9a1e09f7b)" style="fill: #a20025; opacity: 0.7; stroke: #000000; stroke-linejoin: miter"/>
   </g>
   <g id="patch_82">
    <path d="M 990.7516 101838.801165 
L 999.271123 101838.801165 
L 999.271123 101838.801165 
L 990.7516 101838.801165 
z
" clip-path="url(#pb9a1e09f7b)" style="fill: #a20025; opacity: 0.7; stroke: #000000; stroke-linejoin: miter"/>
   </g>
   <g id="patch_83">
    <path d="M 999.271123 101838.801165 
L 1007.790646 101838.801165 
L 1007.790646 101838.801165 
L 999.271123 101838.801165 
z
" clip-path="url(#pb9a1e09f7b)" style="fill: #a20025; opacity: 0.7; stroke: #000000; stroke-linejoin: miter"/>
   </g>
   <g id="patch_84">
    <path d="M 1007.790646 101838.801165 
L 1016.31017 101838.801165 
L 1016.31017 101838.801165 
L 1007.790646 101838.801165 
z
" clip-path="url(#pb9a1e09f7b)" style="fill: #a20025; opacity: 0.7; stroke: #000000; stroke-linejoin: miter"/>
   </g>
   <g id="patch_85">
    <path d="M 1016.31017 101838.801165 
L 1024.829693 101838.801165 
L 1024.829693 101838.801165 
L 1016.31017 101838.801165 
z
" clip-path="url(#pb9a1e09f7b)" style="fill: #a20025; opacity: 0.7; stroke: #000000; stroke-linejoin: miter"/>
   </g>
   <g id="patch_86">
    <path d="M 1024.829693 101838.801165 
L 1033.349216 101838.801165 
L 1033.349216 367.000824 
L 1024.829693 367.000824 
z
" clip-path="url(#pb9a1e09f7b)" style="fill: #a20025; opacity: 0.7; stroke: #000000; stroke-linejoin: miter"/>
   </g>
   <g id="patch_87">
    <path d="M 1033.349216 101838.801165 
L 1041.868739 101838.801165 
L 1041.868739 367.000824 
L 1033.349216 367.000824 
z
" clip-path="url(#pb9a1e09f7b)" style="fill: #a20025; opacity: 0.7; stroke: #000000; stroke-linejoin: miter"/>
   </g>
   <g id="matplotlib.axis_3">
    <g id="xtick_5">
     <g id="line2d_14">
      <g>
       <use xlink:href="#m786e932697" x="615.892581" y="383.197187" style="stroke: #000000; stroke-width: 0.8"/>
      </g>
     </g>
     <g id="text_17">
      <!-- 0 -->
      <g transform="translate(610.802581 402.354687) scale(0.16 -0.16)">
       <use xlink:href="#DejaVuSans-30"/>
      </g>
     </g>
    </g>
    <g id="xtick_6">
     <g id="line2d_15">
      <g>
       <use xlink:href="#m786e932697" x="671.942076" y="383.197187" style="stroke: #000000; stroke-width: 0.8"/>
      </g>
     </g>
     <g id="text_18">
      <!-- 50 -->
      <g transform="translate(661.762076 402.354687) scale(0.16 -0.16)">
       <use xlink:href="#DejaVuSans-35"/>
       <use xlink:href="#DejaVuSans-30" transform="translate(63.623047 0)"/>
      </g>
     </g>
    </g>
    <g id="xtick_7">
     <g id="line2d_16">
      <g>
       <use xlink:href="#m786e932697" x="727.99157" y="383.197187" style="stroke: #000000; stroke-width: 0.8"/>
      </g>
     </g>
     <g id="text_19">
      <!-- 100 -->
      <g transform="translate(712.72157 402.354687) scale(0.16 -0.16)">
       <use xlink:href="#DejaVuSans-31"/>
       <use xlink:href="#DejaVuSans-30" transform="translate(63.623047 0)"/>
       <use xlink:href="#DejaVuSans-30" transform="translate(127.246094 0)"/>
      </g>
     </g>
    </g>
    <g id="xtick_8">
     <g id="line2d_17">
      <g>
       <use xlink:href="#m786e932697" x="784.041065" y="383.197187" style="stroke: #000000; stroke-width: 0.8"/>
      </g>
     </g>
     <g id="text_20">
      <!-- 150 -->
      <g transform="translate(768.771065 402.354687) scale(0.16 -0.16)">
       <use xlink:href="#DejaVuSans-31"/>
       <use xlink:href="#DejaVuSans-35" transform="translate(63.623047 0)"/>
       <use xlink:href="#DejaVuSans-30" transform="translate(127.246094 0)"/>
      </g>
     </g>
    </g>
    <g id="xtick_9">
     <g id="line2d_18">
      <g>
       <use xlink:href="#m786e932697" x="840.090559" y="383.197187" style="stroke: #000000; stroke-width: 0.8"/>
      </g>
     </g>
     <g id="text_21">
      <!-- 200 -->
      <g transform="translate(824.820559 402.354687) scale(0.16 -0.16)">
       <use xlink:href="#DejaVuSans-32"/>
       <use xlink:href="#DejaVuSans-30" transform="translate(63.623047 0)"/>
       <use xlink:href="#DejaVuSans-30" transform="translate(127.246094 0)"/>
      </g>
     </g>
    </g>
    <g id="xtick_10">
     <g id="line2d_19">
      <g>
       <use xlink:href="#m786e932697" x="896.140054" y="383.197187" style="stroke: #000000; stroke-width: 0.8"/>
      </g>
     </g>
     <g id="text_22">
      <!-- 250 -->
      <g transform="translate(880.870054 402.354687) scale(0.16 -0.16)">
       <use xlink:href="#DejaVuSans-32"/>
       <use xlink:href="#DejaVuSans-35" transform="translate(63.623047 0)"/>
       <use xlink:href="#DejaVuSans-30" transform="translate(127.246094 0)"/>
      </g>
     </g>
    </g>
    <g id="xtick_11">
     <g id="line2d_20">
      <g>
       <use xlink:href="#m786e932697" x="952.189548" y="383.197187" style="stroke: #000000; stroke-width: 0.8"/>
      </g>
     </g>
     <g id="text_23">
      <!-- 300 -->
      <g transform="translate(936.919548 402.354687) scale(0.16 -0.16)">
       <use xlink:href="#DejaVuSans-33"/>
       <use xlink:href="#DejaVuSans-30" transform="translate(63.623047 0)"/>
       <use xlink:href="#DejaVuSans-30" transform="translate(127.246094 0)"/>
      </g>
     </g>
    </g>
    <g id="xtick_12">
     <g id="line2d_21">
      <g>
       <use xlink:href="#m786e932697" x="1008.239042" y="383.197187" style="stroke: #000000; stroke-width: 0.8"/>
      </g>
     </g>
     <g id="text_24">
      <!-- 350 -->
      <g transform="translate(992.969042 402.354687) scale(0.16 -0.16)">
       <use xlink:href="#DejaVuSans-33"/>
       <use xlink:href="#DejaVuSans-35" transform="translate(63.623047 0)"/>
       <use xlink:href="#DejaVuSans-30" transform="translate(127.246094 0)"/>
      </g>
     </g>
    </g>
    <g id="text_25">
     <!-- Frequency (Number of Molecules) -->
     <g transform="translate(694.11066 421.839687) scale(0.16 -0.16)">
      <defs>
       <path id="DejaVuSans-28" d="M 1984 4856 
Q 1566 4138 1362 3434 
Q 1159 2731 1159 2009 
Q 1159 1288 1364 580 
Q 1569 -128 1984 -844 
L 1484 -844 
Q 1016 -109 783 600 
Q 550 1309 550 2009 
Q 550 2706 781 3412 
Q 1013 4119 1484 4856 
L 1984 4856 
z
" transform="scale(0.015625)"/>
       <path id="DejaVuSans-29" d="M 513 4856 
L 1013 4856 
Q 1481 4119 1714 3412 
Q 1947 2706 1947 2009 
Q 1947 1309 1714 600 
Q 1481 -109 1013 -844 
L 513 -844 
Q 928 -128 1133 580 
Q 1338 1288 1338 2009 
Q 1338 2731 1133 3434 
Q 928 4138 513 4856 
z
" transform="scale(0.015625)"/>
      </defs>
      <use xlink:href="#DejaVuSans-46"/>
      <use xlink:href="#DejaVuSans-72" transform="translate(50.269531 0)"/>
      <use xlink:href="#DejaVuSans-65" transform="translate(89.132812 0)"/>
      <use xlink:href="#DejaVuSans-71" transform="translate(150.65625 0)"/>
      <use xlink:href="#DejaVuSans-75" transform="translate(214.132812 0)"/>
      <use xlink:href="#DejaVuSans-65" transform="translate(277.511719 0)"/>
      <use xlink:href="#DejaVuSans-6e" transform="translate(339.035156 0)"/>
      <use xlink:href="#DejaVuSans-63" transform="translate(402.414062 0)"/>
      <use xlink:href="#DejaVuSans-79" transform="translate(457.394531 0)"/>
      <use xlink:href="#DejaVuSans-20" transform="translate(516.574219 0)"/>
      <use xlink:href="#DejaVuSans-28" transform="translate(548.361328 0)"/>
      <use xlink:href="#DejaVuSans-4e" transform="translate(587.375 0)"/>
      <use xlink:href="#DejaVuSans-75" transform="translate(662.179688 0)"/>
      <use xlink:href="#DejaVuSans-6d" transform="translate(725.558594 0)"/>
      <use xlink:href="#DejaVuSans-62" transform="translate(822.970703 0)"/>
      <use xlink:href="#DejaVuSans-65" transform="translate(886.447266 0)"/>
      <use xlink:href="#DejaVuSans-72" transform="translate(947.970703 0)"/>
      <use xlink:href="#DejaVuSans-20" transform="translate(989.083984 0)"/>
      <use xlink:href="#DejaVuSans-6f" transform="translate(1020.871094 0)"/>
      <use xlink:href="#DejaVuSans-66" transform="translate(1082.052734 0)"/>
      <use xlink:href="#DejaVuSans-20" transform="translate(1117.257812 0)"/>
      <use xlink:href="#DejaVuSans-4d" transform="translate(1149.044922 0)"/>
      <use xlink:href="#DejaVuSans-6f" transform="translate(1235.324219 0)"/>
      <use xlink:href="#DejaVuSans-6c" transform="translate(1296.505859 0)"/>
      <use xlink:href="#DejaVuSans-65" transform="translate(1324.289062 0)"/>
      <use xlink:href="#DejaVuSans-63" transform="translate(1385.8125 0)"/>
      <use xlink:href="#DejaVuSans-75" transform="translate(1440.792969 0)"/>
      <use xlink:href="#DejaVuSans-6c" transform="translate(1504.171875 0)"/>
      <use xlink:href="#DejaVuSans-65" transform="translate(1531.955078 0)"/>
      <use xlink:href="#DejaVuSans-73" transform="translate(1593.478516 0)"/>
      <use xlink:href="#DejaVuSans-29" transform="translate(1645.578125 0)"/>
     </g>
    </g>
   </g>
   <g id="matplotlib.axis_4">
    <g id="ytick_10">
     <g id="line2d_22">
      <g>
       <use xlink:href="#m05b68238bf" x="594.593773" y="367.000824" style="stroke: #000000; stroke-width: 0.8"/>
      </g>
     </g>
     <g id="text_26">
      <!-- $\mathdefault{10^{0}}$ -->
      <g transform="translate(559.433773 373.079574) scale(0.16 -0.16)">
       <use xlink:href="#DejaVuSans-31" transform="translate(0 0.765625)"/>
       <use xlink:href="#DejaVuSans-30" transform="translate(63.623047 0.765625)"/>
       <use xlink:href="#DejaVuSans-30" transform="translate(128.203125 39.046875) scale(0.7)"/>
      </g>
     </g>
    </g>
    <g id="ytick_11">
     <g id="line2d_23">
      <g>
       <use xlink:href="#m05b68238bf" x="594.593773" y="265.529024" style="stroke: #000000; stroke-width: 0.8"/>
      </g>
     </g>
     <g id="text_27">
      <!-- $\mathdefault{10^{1}}$ -->
      <g transform="translate(559.433773 271.607774) scale(0.16 -0.16)">
       <use xlink:href="#DejaVuSans-31" transform="translate(0 0.684375)"/>
       <use xlink:href="#DejaVuSans-30" transform="translate(63.623047 0.684375)"/>
       <use xlink:href="#DejaVuSans-31" transform="translate(128.203125 38.965625) scale(0.7)"/>
      </g>
     </g>
    </g>
    <g id="ytick_12">
     <g id="line2d_24">
      <g>
       <use xlink:href="#m05b68238bf" x="594.593773" y="164.057223" style="stroke: #000000; stroke-width: 0.8"/>
      </g>
     </g>
     <g id="text_28">
      <!-- $\mathdefault{10^{2}}$ -->
      <g transform="translate(559.433773 170.135973) scale(0.16 -0.16)">
       <use xlink:href="#DejaVuSans-31" transform="translate(0 0.765625)"/>
       <use xlink:href="#DejaVuSans-30" transform="translate(63.623047 0.765625)"/>
       <use xlink:href="#DejaVuSans-32" transform="translate(128.203125 39.046875) scale(0.7)"/>
      </g>
     </g>
    </g>
    <g id="ytick_13">
     <g id="line2d_25">
      <g>
       <use xlink:href="#m05b68238bf" x="594.593773" y="62.585423" style="stroke: #000000; stroke-width: 0.8"/>
      </g>
     </g>
     <g id="text_29">
      <!-- $\mathdefault{10^{3}}$ -->
      <g transform="translate(559.433773 68.664173) scale(0.16 -0.16)">
       <use xlink:href="#DejaVuSans-31" transform="translate(0 0.765625)"/>
       <use xlink:href="#DejaVuSans-30" transform="translate(63.623047 0.765625)"/>
       <use xlink:href="#DejaVuSans-33" transform="translate(128.203125 39.046875) scale(0.7)"/>
      </g>
     </g>
    </g>
    <g id="ytick_14">
     <g id="line2d_26">
      <defs>
       <path id="m030faa5b63" d="M 0 0 
L -2 0 
" style="stroke: #000000; stroke-width: 0.6"/>
      </defs>
      <g>
       <use xlink:href="#m030faa5b63" x="594.593773" y="382.719005" style="stroke: #000000; stroke-width: 0.6"/>
      </g>
     </g>
    </g>
    <g id="ytick_15">
     <g id="line2d_27">
      <g>
       <use xlink:href="#m030faa5b63" x="594.593773" y="376.834457" style="stroke: #000000; stroke-width: 0.6"/>
      </g>
     </g>
    </g>
    <g id="ytick_16">
     <g id="line2d_28">
      <g>
       <use xlink:href="#m030faa5b63" x="594.593773" y="371.643919" style="stroke: #000000; stroke-width: 0.6"/>
      </g>
     </g>
    </g>
    <g id="ytick_17">
     <g id="line2d_29">
      <g>
       <use xlink:href="#m030faa5b63" x="594.593773" y="336.454768" style="stroke: #000000; stroke-width: 0.6"/>
      </g>
     </g>
    </g>
    <g id="ytick_18">
     <g id="line2d_30">
      <g>
       <use xlink:href="#m030faa5b63" x="594.593773" y="318.586471" style="stroke: #000000; stroke-width: 0.6"/>
      </g>
     </g>
    </g>
    <g id="ytick_19">
     <g id="line2d_31">
      <g>
       <use xlink:href="#m030faa5b63" x="594.593773" y="305.908713" style="stroke: #000000; stroke-width: 0.6"/>
      </g>
     </g>
    </g>
    <g id="ytick_20">
     <g id="line2d_32">
      <g>
       <use xlink:href="#m030faa5b63" x="594.593773" y="296.075079" style="stroke: #000000; stroke-width: 0.6"/>
      </g>
     </g>
    </g>
    <g id="ytick_21">
     <g id="line2d_33">
      <g>
       <use xlink:href="#m030faa5b63" x="594.593773" y="288.040416" style="stroke: #000000; stroke-width: 0.6"/>
      </g>
     </g>
    </g>
    <g id="ytick_22">
     <g id="line2d_34">
      <g>
       <use xlink:href="#m030faa5b63" x="594.593773" y="281.247204" style="stroke: #000000; stroke-width: 0.6"/>
      </g>
     </g>
    </g>
    <g id="ytick_23">
     <g id="line2d_35">
      <g>
       <use xlink:href="#m030faa5b63" x="594.593773" y="275.362657" style="stroke: #000000; stroke-width: 0.6"/>
      </g>
     </g>
    </g>
    <g id="ytick_24">
     <g id="line2d_36">
      <g>
       <use xlink:href="#m030faa5b63" x="594.593773" y="270.172118" style="stroke: #000000; stroke-width: 0.6"/>
      </g>
     </g>
    </g>
    <g id="ytick_25">
     <g id="line2d_37">
      <g>
       <use xlink:href="#m030faa5b63" x="594.593773" y="234.982968" style="stroke: #000000; stroke-width: 0.6"/>
      </g>
     </g>
    </g>
    <g id="ytick_26">
     <g id="line2d_38">
      <g>
       <use xlink:href="#m030faa5b63" x="594.593773" y="217.114671" style="stroke: #000000; stroke-width: 0.6"/>
      </g>
     </g>
    </g>
    <g id="ytick_27">
     <g id="line2d_39">
      <g>
       <use xlink:href="#m030faa5b63" x="594.593773" y="204.436912" style="stroke: #000000; stroke-width: 0.6"/>
      </g>
     </g>
    </g>
    <g id="ytick_28">
     <g id="line2d_40">
      <g>
       <use xlink:href="#m030faa5b63" x="594.593773" y="194.603279" style="stroke: #000000; stroke-width: 0.6"/>
      </g>
     </g>
    </g>
    <g id="ytick_29">
     <g id="line2d_41">
      <g>
       <use xlink:href="#m030faa5b63" x="594.593773" y="186.568615" style="stroke: #000000; stroke-width: 0.6"/>
      </g>
     </g>
    </g>
    <g id="ytick_30">
     <g id="line2d_42">
      <g>
       <use xlink:href="#m030faa5b63" x="594.593773" y="179.775404" style="stroke: #000000; stroke-width: 0.6"/>
      </g>
     </g>
    </g>
    <g id="ytick_31">
     <g id="line2d_43">
      <g>
       <use xlink:href="#m030faa5b63" x="594.593773" y="173.890857" style="stroke: #000000; stroke-width: 0.6"/>
      </g>
     </g>
    </g>
    <g id="ytick_32">
     <g id="line2d_44">
      <g>
       <use xlink:href="#m030faa5b63" x="594.593773" y="168.700318" style="stroke: #000000; stroke-width: 0.6"/>
      </g>
     </g>
    </g>
    <g id="ytick_33">
     <g id="line2d_45">
      <g>
       <use xlink:href="#m030faa5b63" x="594.593773" y="133.511168" style="stroke: #000000; stroke-width: 0.6"/>
      </g>
     </g>
    </g>
    <g id="ytick_34">
     <g id="line2d_46">
      <g>
       <use xlink:href="#m030faa5b63" x="594.593773" y="115.64287" style="stroke: #000000; stroke-width: 0.6"/>
      </g>
     </g>
    </g>
    <g id="ytick_35">
     <g id="line2d_47">
      <g>
       <use xlink:href="#m030faa5b63" x="594.593773" y="102.965112" style="stroke: #000000; stroke-width: 0.6"/>
      </g>
     </g>
    </g>
    <g id="ytick_36">
     <g id="line2d_48">
      <g>
       <use xlink:href="#m030faa5b63" x="594.593773" y="93.131478" style="stroke: #000000; stroke-width: 0.6"/>
      </g>
     </g>
    </g>
    <g id="ytick_37">
     <g id="line2d_49">
      <g>
       <use xlink:href="#m030faa5b63" x="594.593773" y="85.096815" style="stroke: #000000; stroke-width: 0.6"/>
      </g>
     </g>
    </g>
    <g id="ytick_38">
     <g id="line2d_50">
      <g>
       <use xlink:href="#m030faa5b63" x="594.593773" y="78.303604" style="stroke: #000000; stroke-width: 0.6"/>
      </g>
     </g>
    </g>
    <g id="ytick_39">
     <g id="line2d_51">
      <g>
       <use xlink:href="#m030faa5b63" x="594.593773" y="72.419056" style="stroke: #000000; stroke-width: 0.6"/>
      </g>
     </g>
    </g>
    <g id="ytick_40">
     <g id="line2d_52">
      <g>
       <use xlink:href="#m030faa5b63" x="594.593773" y="67.228518" style="stroke: #000000; stroke-width: 0.6"/>
      </g>
     </g>
    </g>
    <g id="ytick_41">
     <g id="line2d_53">
      <g>
       <use xlink:href="#m030faa5b63" x="594.593773" y="32.039367" style="stroke: #000000; stroke-width: 0.6"/>
      </g>
     </g>
    </g>
    <g id="text_30">
     <!-- Number of Bits -->
     <g transform="translate(552.106273 264.985937) rotate(-90) scale(0.16 -0.16)">
      <use xlink:href="#DejaVuSans-4e"/>
      <use xlink:href="#DejaVuSans-75" transform="translate(74.804688 0)"/>
      <use xlink:href="#DejaVuSans-6d" transform="translate(138.183594 0)"/>
      <use xlink:href="#DejaVuSans-62" transform="translate(235.595703 0)"/>
      <use xlink:href="#DejaVuSans-65" transform="translate(299.072266 0)"/>
      <use xlink:href="#DejaVuSans-72" transform="translate(360.595703 0)"/>
      <use xlink:href="#DejaVuSans-20" transform="translate(401.708984 0)"/>
      <use xlink:href="#DejaVuSans-6f" transform="translate(433.496094 0)"/>
      <use xlink:href="#DejaVuSans-66" transform="translate(494.677734 0)"/>
      <use xlink:href="#DejaVuSans-20" transform="translate(529.882812 0)"/>
      <use xlink:href="#DejaVuSans-42" transform="translate(561.669922 0)"/>
      <use xlink:href="#DejaVuSans-69" transform="translate(630.273438 0)"/>
      <use xlink:href="#DejaVuSans-74" transform="translate(658.056641 0)"/>
      <use xlink:href="#DejaVuSans-73" transform="translate(697.265625 0)"/>
     </g>
    </g>
   </g>
   <g id="patch_88">
    <path d="M 594.593773 383.197187 
L 594.593773 26.877187 
" style="fill: none; stroke: #000000; stroke-width: 0.8; stroke-linejoin: miter; stroke-linecap: square"/>
   </g>
   <g id="patch_89">
    <path d="M 1063.167547 383.197187 
L 1063.167547 26.877187 
" style="fill: none; stroke: #000000; stroke-width: 0.8; stroke-linejoin: miter; stroke-linecap: square"/>
   </g>
   <g id="patch_90">
    <path d="M 594.593773 383.197187 
L 1063.167547 383.197187 
" style="fill: none; stroke: #000000; stroke-width: 0.8; stroke-linejoin: miter; stroke-linecap: square"/>
   </g>
   <g id="patch_91">
    <path d="M 594.593773 26.877187 
L 1063.167547 26.877187 
" style="fill: none; stroke: #000000; stroke-width: 0.8; stroke-linejoin: miter; stroke-linecap: square"/>
   </g>
   <g id="text_31">
    <!-- Bit Frequency Distribution -->
    <g transform="translate(711.95941 20.877187) scale(0.18 -0.18)">
     <use xlink:href="#DejaVuSans-42"/>
     <use xlink:href="#DejaVuSans-69" transform="translate(68.603516 0)"/>
     <use xlink:href="#DejaVuSans-74" transform="translate(96.386719 0)"/>
     <use xlink:href="#DejaVuSans-20" transform="translate(135.595703 0)"/>
     <use xlink:href="#DejaVuSans-46" transform="translate(167.382812 0)"/>
     <use xlink:href="#DejaVuSans-72" transform="translate(217.652344 0)"/>
     <use xlink:href="#DejaVuSans-65" transform="translate(256.515625 0)"/>
     <use xlink:href="#DejaVuSans-71" transform="translate(318.039062 0)"/>
     <use xlink:href="#DejaVuSans-75" transform="translate(381.515625 0)"/>
     <use xlink:href="#DejaVuSans-65" transform="translate(444.894531 0)"/>
     <use xlink:href="#DejaVuSans-6e" transform="translate(506.417969 0)"/>
     <use xlink:href="#DejaVuSans-63" transform="translate(569.796875 0)"/>
     <use xlink:href="#DejaVuSans-79" transform="translate(624.777344 0)"/>
     <use xlink:href="#DejaVuSans-20" transform="translate(683.957031 0)"/>
     <use xlink:href="#DejaVuSans-44" transform="translate(715.744141 0)"/>
     <use xlink:href="#DejaVuSans-69" transform="translate(792.746094 0)"/>
     <use xlink:href="#DejaVuSans-73" transform="translate(820.529297 0)"/>
     <use xlink:href="#DejaVuSans-74" transform="translate(872.628906 0)"/>
     <use xlink:href="#DejaVuSans-72" transform="translate(911.837891 0)"/>
     <use xlink:href="#DejaVuSans-69" transform="translate(952.951172 0)"/>
     <use xlink:href="#DejaVuSans-62" transform="translate(980.734375 0)"/>
     <use xlink:href="#DejaVuSans-75" transform="translate(1044.210938 0)"/>
     <use xlink:href="#DejaVuSans-74" transform="translate(1107.589844 0)"/>
     <use xlink:href="#DejaVuSans-69" transform="translate(1146.798828 0)"/>
     <use xlink:href="#DejaVuSans-6f" transform="translate(1174.582031 0)"/>
     <use xlink:href="#DejaVuSans-6e" transform="translate(1235.763672 0)"/>
    </g>
   </g>
  </g>
  <g id="axes_3">
   <g id="patch_92">
    <path d="M 59.13 809.797187 
L 527.703773 809.797187 
L 527.703773 453.477187 
L 59.13 453.477187 
z
" style="fill: #ffffff"/>
   </g>
   <g id="patch_93">
    <path d="M 80.428808 809.797187 
L 269.751545 809.797187 
L 269.751545 801.862697 
L 80.428808 801.862697 
z
" clip-path="url(#p9ee1a1ce9a)" style="fill: #a20025"/>
   </g>
   <g id="patch_94">
    <path d="M 317.082229 809.797187 
L 506.404966 809.797187 
L 506.404966 470.444807 
L 317.082229 470.444807 
z
" clip-path="url(#p9ee1a1ce9a)" style="fill: #6c8ebf"/>
   </g>
   <g id="matplotlib.axis_5">
    <g id="xtick_13">
     <g id="line2d_54">
      <g>
       <use xlink:href="#m786e932697" x="175.090176" y="809.797187" style="stroke: #000000; stroke-width: 0.8"/>
      </g>
     </g>
     <g id="text_32">
      <!-- Set Bits -->
      <g transform="translate(144.395176 828.954687) scale(0.16 -0.16)">
       <use xlink:href="#DejaVuSans-53"/>
       <use xlink:href="#DejaVuSans-65" transform="translate(63.476562 0)"/>
       <use xlink:href="#DejaVuSans-74" transform="translate(125 0)"/>
       <use xlink:href="#DejaVuSans-20" transform="translate(164.208984 0)"/>
       <use xlink:href="#DejaVuSans-42" transform="translate(195.996094 0)"/>
       <use xlink:href="#DejaVuSans-69" transform="translate(264.599609 0)"/>
       <use xlink:href="#DejaVuSans-74" transform="translate(292.382812 0)"/>
       <use xlink:href="#DejaVuSans-73" transform="translate(331.591797 0)"/>
      </g>
     </g>
    </g>
    <g id="xtick_14">
     <g id="line2d_55">
      <g>
       <use xlink:href="#m786e932697" x="411.743597" y="809.797187" style="stroke: #000000; stroke-width: 0.8"/>
      </g>
     </g>
     <g id="text_33">
      <!-- Unset Bits -->
      <g transform="translate(371.034847 828.954687) scale(0.16 -0.16)">
       <defs>
        <path id="DejaVuSans-55" d="M 556 4666 
L 1191 4666 
L 1191 1831 
Q 1191 1081 1462 751 
Q 1734 422 2344 422 
Q 2950 422 3222 751 
Q 3494 1081 3494 1831 
L 3494 4666 
L 4128 4666 
L 4128 1753 
Q 4128 841 3676 375 
Q 3225 -91 2344 -91 
Q 1459 -91 1007 375 
Q 556 841 556 1753 
L 556 4666 
z
" transform="scale(0.015625)"/>
       </defs>
       <use xlink:href="#DejaVuSans-55"/>
       <use xlink:href="#DejaVuSans-6e" transform="translate(73.193359 0)"/>
       <use xlink:href="#DejaVuSans-73" transform="translate(136.572266 0)"/>
       <use xlink:href="#DejaVuSans-65" transform="translate(188.671875 0)"/>
       <use xlink:href="#DejaVuSans-74" transform="translate(250.195312 0)"/>
       <use xlink:href="#DejaVuSans-20" transform="translate(289.404297 0)"/>
       <use xlink:href="#DejaVuSans-42" transform="translate(321.191406 0)"/>
       <use xlink:href="#DejaVuSans-69" transform="translate(389.794922 0)"/>
       <use xlink:href="#DejaVuSans-74" transform="translate(417.578125 0)"/>
       <use xlink:href="#DejaVuSans-73" transform="translate(456.787109 0)"/>
      </g>
     </g>
    </g>
   </g>
   <g id="matplotlib.axis_6">
    <g id="ytick_42">
     <g id="line2d_56">
      <g>
       <use xlink:href="#m05b68238bf" x="59.13" y="809.797187" style="stroke: #000000; stroke-width: 0.8"/>
      </g>
     </g>
     <g id="text_34">
      <!-- 0.0 -->
      <g transform="translate(26.685 815.875937) scale(0.16 -0.16)">
       <defs>
        <path id="DejaVuSans-2e" d="M 684 794 
L 1344 794 
L 1344 0 
L 684 0 
L 684 794 
z
" transform="scale(0.015625)"/>
       </defs>
       <use xlink:href="#DejaVuSans-30"/>
       <use xlink:href="#DejaVuSans-2e" transform="translate(63.623047 0)"/>
       <use xlink:href="#DejaVuSans-30" transform="translate(95.410156 0)"/>
      </g>
     </g>
    </g>
    <g id="ytick_43">
     <g id="line2d_57">
      <g>
       <use xlink:href="#m05b68238bf" x="59.13" y="740.339813" style="stroke: #000000; stroke-width: 0.8"/>
      </g>
     </g>
     <g id="text_35">
      <!-- 0.2 -->
      <g transform="translate(26.685 746.418563) scale(0.16 -0.16)">
       <use xlink:href="#DejaVuSans-30"/>
       <use xlink:href="#DejaVuSans-2e" transform="translate(63.623047 0)"/>
       <use xlink:href="#DejaVuSans-32" transform="translate(95.410156 0)"/>
      </g>
     </g>
    </g>
    <g id="ytick_44">
     <g id="line2d_58">
      <g>
       <use xlink:href="#m05b68238bf" x="59.13" y="670.882439" style="stroke: #000000; stroke-width: 0.8"/>
      </g>
     </g>
     <g id="text_36">
      <!-- 0.4 -->
      <g transform="translate(26.685 676.961189) scale(0.16 -0.16)">
       <use xlink:href="#DejaVuSans-30"/>
       <use xlink:href="#DejaVuSans-2e" transform="translate(63.623047 0)"/>
       <use xlink:href="#DejaVuSans-34" transform="translate(95.410156 0)"/>
      </g>
     </g>
    </g>
    <g id="ytick_45">
     <g id="line2d_59">
      <g>
       <use xlink:href="#m05b68238bf" x="59.13" y="601.425065" style="stroke: #000000; stroke-width: 0.8"/>
      </g>
     </g>
     <g id="text_37">
      <!-- 0.6 -->
      <g transform="translate(26.685 607.503815) scale(0.16 -0.16)">
       <use xlink:href="#DejaVuSans-30"/>
       <use xlink:href="#DejaVuSans-2e" transform="translate(63.623047 0)"/>
       <use xlink:href="#DejaVuSans-36" transform="translate(95.410156 0)"/>
      </g>
     </g>
    </g>
    <g id="ytick_46">
     <g id="line2d_60">
      <g>
       <use xlink:href="#m05b68238bf" x="59.13" y="531.96769" style="stroke: #000000; stroke-width: 0.8"/>
      </g>
     </g>
     <g id="text_38">
      <!-- 0.8 -->
      <g transform="translate(26.685 538.04644) scale(0.16 -0.16)">
       <use xlink:href="#DejaVuSans-30"/>
       <use xlink:href="#DejaVuSans-2e" transform="translate(63.623047 0)"/>
       <use xlink:href="#DejaVuSans-38" transform="translate(95.410156 0)"/>
      </g>
     </g>
    </g>
    <g id="ytick_47">
     <g id="line2d_61">
      <g>
       <use xlink:href="#m05b68238bf" x="59.13" y="462.510316" style="stroke: #000000; stroke-width: 0.8"/>
      </g>
     </g>
     <g id="text_39">
      <!-- 1.0 -->
      <g transform="translate(26.685 468.589066) scale(0.16 -0.16)">
       <use xlink:href="#DejaVuSans-31"/>
       <use xlink:href="#DejaVuSans-2e" transform="translate(63.623047 0)"/>
       <use xlink:href="#DejaVuSans-30" transform="translate(95.410156 0)"/>
      </g>
     </g>
    </g>
    <g id="text_40">
     <!-- Proportion -->
     <g transform="translate(19.3575 672.910937) rotate(-90) scale(0.16 -0.16)">
      <defs>
       <path id="DejaVuSans-50" d="M 1259 4147 
L 1259 2394 
L 2053 2394 
Q 2494 2394 2734 2622 
Q 2975 2850 2975 3272 
Q 2975 3691 2734 3919 
Q 2494 4147 2053 4147 
L 1259 4147 
z
M 628 4666 
L 2053 4666 
Q 2838 4666 3239 4311 
Q 3641 3956 3641 3272 
Q 3641 2581 3239 2228 
Q 2838 1875 2053 1875 
L 1259 1875 
L 1259 0 
L 628 0 
L 628 4666 
z
" transform="scale(0.015625)"/>
      </defs>
      <use xlink:href="#DejaVuSans-50"/>
      <use xlink:href="#DejaVuSans-72" transform="translate(58.552734 0)"/>
      <use xlink:href="#DejaVuSans-6f" transform="translate(97.416016 0)"/>
      <use xlink:href="#DejaVuSans-70" transform="translate(158.597656 0)"/>
      <use xlink:href="#DejaVuSans-6f" transform="translate(222.074219 0)"/>
      <use xlink:href="#DejaVuSans-72" transform="translate(283.255859 0)"/>
      <use xlink:href="#DejaVuSans-74" transform="translate(324.369141 0)"/>
      <use xlink:href="#DejaVuSans-69" transform="translate(363.578125 0)"/>
      <use xlink:href="#DejaVuSans-6f" transform="translate(391.361328 0)"/>
      <use xlink:href="#DejaVuSans-6e" transform="translate(452.542969 0)"/>
     </g>
    </g>
   </g>
   <g id="patch_95">
    <path d="M 59.13 809.797187 
L 59.13 453.477187 
" style="fill: none; stroke: #000000; stroke-width: 0.8; stroke-linejoin: miter; stroke-linecap: square"/>
   </g>
   <g id="patch_96">
    <path d="M 527.703773 809.797187 
L 527.703773 453.477187 
" style="fill: none; stroke: #000000; stroke-width: 0.8; stroke-linejoin: miter; stroke-linecap: square"/>
   </g>
   <g id="patch_97">
    <path d="M 59.13 809.797187 
L 527.703773 809.797187 
" style="fill: none; stroke: #000000; stroke-width: 0.8; stroke-linejoin: miter; stroke-linecap: square"/>
   </g>
   <g id="patch_98">
    <path d="M 59.13 453.477187 
L 527.703773 453.477187 
" style="fill: none; stroke: #000000; stroke-width: 0.8; stroke-linejoin: miter; stroke-linecap: square"/>
   </g>
   <g id="text_41">
    <!-- Fingerprint Sparsity: 0.977 -->
    <g transform="translate(174.040324 447.477187) scale(0.18 -0.18)">
     <defs>
      <path id="DejaVuSans-67" d="M 2906 1791 
Q 2906 2416 2648 2759 
Q 2391 3103 1925 3103 
Q 1463 3103 1205 2759 
Q 947 2416 947 1791 
Q 947 1169 1205 825 
Q 1463 481 1925 481 
Q 2391 481 2648 825 
Q 2906 1169 2906 1791 
z
M 3481 434 
Q 3481 -459 3084 -895 
Q 2688 -1331 1869 -1331 
Q 1566 -1331 1297 -1286 
Q 1028 -1241 775 -1147 
L 775 -588 
Q 1028 -725 1275 -790 
Q 1522 -856 1778 -856 
Q 2344 -856 2625 -561 
Q 2906 -266 2906 331 
L 2906 616 
Q 2728 306 2450 153 
Q 2172 0 1784 0 
Q 1141 0 747 490 
Q 353 981 353 1791 
Q 353 2603 747 3093 
Q 1141 3584 1784 3584 
Q 2172 3584 2450 3431 
Q 2728 3278 2906 2969 
L 2906 3500 
L 3481 3500 
L 3481 434 
z
" transform="scale(0.015625)"/>
      <path id="DejaVuSans-61" d="M 2194 1759 
Q 1497 1759 1228 1600 
Q 959 1441 959 1056 
Q 959 750 1161 570 
Q 1363 391 1709 391 
Q 2188 391 2477 730 
Q 2766 1069 2766 1631 
L 2766 1759 
L 2194 1759 
z
M 3341 1997 
L 3341 0 
L 2766 0 
L 2766 531 
Q 2569 213 2275 61 
Q 1981 -91 1556 -91 
Q 1019 -91 701 211 
Q 384 513 384 1019 
Q 384 1609 779 1909 
Q 1175 2209 1959 2209 
L 2766 2209 
L 2766 2266 
Q 2766 2663 2505 2880 
Q 2244 3097 1772 3097 
Q 1472 3097 1187 3025 
Q 903 2953 641 2809 
L 641 3341 
Q 956 3463 1253 3523 
Q 1550 3584 1831 3584 
Q 2591 3584 2966 3190 
Q 3341 2797 3341 1997 
z
" transform="scale(0.015625)"/>
      <path id="DejaVuSans-3a" d="M 750 794 
L 1409 794 
L 1409 0 
L 750 0 
L 750 794 
z
M 750 3309 
L 1409 3309 
L 1409 2516 
L 750 2516 
L 750 3309 
z
" transform="scale(0.015625)"/>
      <path id="DejaVuSans-39" d="M 703 97 
L 703 672 
Q 941 559 1184 500 
Q 1428 441 1663 441 
Q 2288 441 2617 861 
Q 2947 1281 2994 2138 
Q 2813 1869 2534 1725 
Q 2256 1581 1919 1581 
Q 1219 1581 811 2004 
Q 403 2428 403 3163 
Q 403 3881 828 4315 
Q 1253 4750 1959 4750 
Q 2769 4750 3195 4129 
Q 3622 3509 3622 2328 
Q 3622 1225 3098 567 
Q 2575 -91 1691 -91 
Q 1453 -91 1209 -44 
Q 966 3 703 97 
z
M 1959 2075 
Q 2384 2075 2632 2365 
Q 2881 2656 2881 3163 
Q 2881 3666 2632 3958 
Q 2384 4250 1959 4250 
Q 1534 4250 1286 3958 
Q 1038 3666 1038 3163 
Q 1038 2656 1286 2365 
Q 1534 2075 1959 2075 
z
" transform="scale(0.015625)"/>
      <path id="DejaVuSans-37" d="M 525 4666 
L 3525 4666 
L 3525 4397 
L 1831 0 
L 1172 0 
L 2766 4134 
L 525 4134 
L 525 4666 
z
" transform="scale(0.015625)"/>
     </defs>
     <use xlink:href="#DejaVuSans-46"/>
     <use xlink:href="#DejaVuSans-69" transform="translate(50.269531 0)"/>
     <use xlink:href="#DejaVuSans-6e" transform="translate(78.052734 0)"/>
     <use xlink:href="#DejaVuSans-67" transform="translate(141.431641 0)"/>
     <use xlink:href="#DejaVuSans-65" transform="translate(204.908203 0)"/>
     <use xlink:href="#DejaVuSans-72" transform="translate(266.431641 0)"/>
     <use xlink:href="#DejaVuSans-70" transform="translate(307.544922 0)"/>
     <use xlink:href="#DejaVuSans-72" transform="translate(371.021484 0)"/>
     <use xlink:href="#DejaVuSans-69" transform="translate(412.134766 0)"/>
     <use xlink:href="#DejaVuSans-6e" transform="translate(439.917969 0)"/>
     <use xlink:href="#DejaVuSans-74" transform="translate(503.296875 0)"/>
     <use xlink:href="#DejaVuSans-20" transform="translate(542.505859 0)"/>
     <use xlink:href="#DejaVuSans-53" transform="translate(574.292969 0)"/>
     <use xlink:href="#DejaVuSans-70" transform="translate(637.769531 0)"/>
     <use xlink:href="#DejaVuSans-61" transform="translate(701.246094 0)"/>
     <use xlink:href="#DejaVuSans-72" transform="translate(762.525391 0)"/>
     <use xlink:href="#DejaVuSans-73" transform="translate(803.638672 0)"/>
     <use xlink:href="#DejaVuSans-69" transform="translate(855.738281 0)"/>
     <use xlink:href="#DejaVuSans-74" transform="translate(883.521484 0)"/>
     <use xlink:href="#DejaVuSans-79" transform="translate(922.730469 0)"/>
     <use xlink:href="#DejaVuSans-3a" transform="translate(974.660156 0)"/>
     <use xlink:href="#DejaVuSans-20" transform="translate(1008.351562 0)"/>
     <use xlink:href="#DejaVuSans-30" transform="translate(1040.138672 0)"/>
     <use xlink:href="#DejaVuSans-2e" transform="translate(1103.761719 0)"/>
     <use xlink:href="#DejaVuSans-39" transform="translate(1135.548828 0)"/>
     <use xlink:href="#DejaVuSans-37" transform="translate(1199.171875 0)"/>
     <use xlink:href="#DejaVuSans-37" transform="translate(1262.794922 0)"/>
    </g>
   </g>
  </g>
  <g id="axes_4">
   <g id="patch_99">
    <path d="M 594.593773 809.797187 
L 1063.167547 809.797187 
L 1063.167547 453.477187 
L 594.593773 453.477187 
z
" style="fill: #ffffff"/>
   </g>
   <g id="patch_100">
    <path d="M 615.892581 809.797187 
L 633.103739 809.797187 
L 633.103739 705.312375 
L 615.892581 705.312375 
z
" clip-path="url(#pdbcf7740c9)" style="fill: #a20025"/>
   </g>
   <g id="patch_101">
    <path d="M 637.406529 809.797187 
L 654.617687 809.797187 
L 654.617687 699.95418 
L 637.406529 699.95418 
z
" clip-path="url(#pdbcf7740c9)" style="fill: #a20025"/>
   </g>
   <g id="patch_102">
    <path d="M 658.920476 809.797187 
L 676.131634 809.797187 
L 676.131634 691.916887 
L 658.920476 691.916887 
z
" clip-path="url(#pdbcf7740c9)" style="fill: #a20025"/>
   </g>
   <g id="patch_103">
    <path d="M 680.434423 809.797187 
L 697.645581 809.797187 
L 697.645581 688.344756 
L 680.434423 688.344756 
z
" clip-path="url(#pdbcf7740c9)" style="fill: #a20025"/>
   </g>
   <g id="patch_104">
    <path d="M 701.948371 809.797187 
L 719.159529 809.797187 
L 719.159529 675.8423 
L 701.948371 675.8423 
z
" clip-path="url(#pdbcf7740c9)" style="fill: #a20025"/>
   </g>
   <g id="patch_105">
    <path d="M 723.462318 809.797187 
L 740.673476 809.797187 
L 740.673476 675.8423 
L 723.462318 675.8423 
z
" clip-path="url(#pdbcf7740c9)" style="fill: #a20025"/>
   </g>
   <g id="patch_106">
    <path d="M 744.976266 809.797187 
L 762.187423 809.797187 
L 762.187423 667.805007 
L 744.976266 667.805007 
z
" clip-path="url(#pdbcf7740c9)" style="fill: #a20025"/>
   </g>
   <g id="patch_107">
    <path d="M 766.490213 809.797187 
L 783.701371 809.797187 
L 783.701371 666.018942 
L 766.490213 666.018942 
z
" clip-path="url(#pdbcf7740c9)" style="fill: #a20025"/>
   </g>
   <g id="patch_108">
    <path d="M 788.00416 809.797187 
L 805.215318 809.797187 
L 805.215318 636.548867 
L 788.00416 636.548867 
z
" clip-path="url(#pdbcf7740c9)" style="fill: #a20025"/>
   </g>
   <g id="patch_109">
    <path d="M 809.518108 809.797187 
L 826.729265 809.797187 
L 826.729265 635.655834 
L 809.518108 635.655834 
z
" clip-path="url(#pdbcf7740c9)" style="fill: #a20025"/>
   </g>
   <g id="patch_110">
    <path d="M 831.032055 809.797187 
L 848.243213 809.797187 
L 848.243213 608.864857 
L 831.032055 608.864857 
z
" clip-path="url(#pdbcf7740c9)" style="fill: #a20025"/>
   </g>
   <g id="patch_111">
    <path d="M 852.546002 809.797187 
L 869.75716 809.797187 
L 869.75716 599.934531 
L 852.546002 599.934531 
z
" clip-path="url(#pdbcf7740c9)" style="fill: #a20025"/>
   </g>
   <g id="patch_112">
    <path d="M 874.05995 809.797187 
L 891.271108 809.797187 
L 891.271108 595.469368 
L 874.05995 595.469368 
z
" clip-path="url(#pdbcf7740c9)" style="fill: #a20025"/>
   </g>
   <g id="patch_113">
    <path d="M 895.573897 809.797187 
L 912.785055 809.797187 
L 912.785055 587.432075 
L 895.573897 587.432075 
z
" clip-path="url(#pdbcf7740c9)" style="fill: #a20025"/>
   </g>
   <g id="patch_114">
    <path d="M 917.087844 809.797187 
L 934.299002 809.797187 
L 934.299002 574.929619 
L 917.087844 574.929619 
z
" clip-path="url(#pdbcf7740c9)" style="fill: #a20025"/>
   </g>
   <g id="patch_115">
    <path d="M 938.601792 809.797187 
L 955.81295 809.797187 
L 955.81295 569.571423 
L 938.601792 569.571423 
z
" clip-path="url(#pdbcf7740c9)" style="fill: #a20025"/>
   </g>
   <g id="patch_116">
    <path d="M 960.115739 809.797187 
L 977.326897 809.797187 
L 977.326897 568.678391 
L 960.115739 568.678391 
z
" clip-path="url(#pdbcf7740c9)" style="fill: #a20025"/>
   </g>
   <g id="patch_117">
    <path d="M 981.629686 809.797187 
L 998.840844 809.797187 
L 998.840844 514.203403 
L 981.629686 514.203403 
z
" clip-path="url(#pdbcf7740c9)" style="fill: #a20025"/>
   </g>
   <g id="patch_118">
    <path d="M 1003.143634 809.797187 
L 1020.354792 809.797187 
L 1020.354792 483.840295 
L 1003.143634 483.840295 
z
" clip-path="url(#pdbcf7740c9)" style="fill: #a20025"/>
   </g>
   <g id="patch_119">
    <path d="M 1024.657581 809.797187 
L 1041.868739 809.797187 
L 1041.868739 470.444807 
L 1024.657581 470.444807 
z
" clip-path="url(#pdbcf7740c9)" style="fill: #a20025"/>
   </g>
   <g id="matplotlib.axis_7">
    <g id="xtick_15">
     <g id="line2d_62">
      <g>
       <use xlink:href="#m786e932697" x="624.49816" y="809.797187" style="stroke: #000000; stroke-width: 0.8"/>
      </g>
     </g>
     <g id="text_42">
      <!-- 0.0 -->
      <g transform="translate(611.77566 828.954687) scale(0.16 -0.16)">
       <use xlink:href="#DejaVuSans-30"/>
       <use xlink:href="#DejaVuSans-2e" transform="translate(63.623047 0)"/>
       <use xlink:href="#DejaVuSans-30" transform="translate(95.410156 0)"/>
      </g>
     </g>
    </g>
    <g id="xtick_16">
     <g id="line2d_63">
      <g>
       <use xlink:href="#m786e932697" x="678.283029" y="809.797187" style="stroke: #000000; stroke-width: 0.8"/>
      </g>
     </g>
     <g id="text_43">
      <!-- 2.5 -->
      <g transform="translate(665.560529 828.954687) scale(0.16 -0.16)">
       <use xlink:href="#DejaVuSans-32"/>
       <use xlink:href="#DejaVuSans-2e" transform="translate(63.623047 0)"/>
       <use xlink:href="#DejaVuSans-35" transform="translate(95.410156 0)"/>
      </g>
     </g>
    </g>
    <g id="xtick_17">
     <g id="line2d_64">
      <g>
       <use xlink:href="#m786e932697" x="732.067897" y="809.797187" style="stroke: #000000; stroke-width: 0.8"/>
      </g>
     </g>
     <g id="text_44">
      <!-- 5.0 -->
      <g transform="translate(719.345397 828.954687) scale(0.16 -0.16)">
       <use xlink:href="#DejaVuSans-35"/>
       <use xlink:href="#DejaVuSans-2e" transform="translate(63.623047 0)"/>
       <use xlink:href="#DejaVuSans-30" transform="translate(95.410156 0)"/>
      </g>
     </g>
    </g>
    <g id="xtick_18">
     <g id="line2d_65">
      <g>
       <use xlink:href="#m786e932697" x="785.852765" y="809.797187" style="stroke: #000000; stroke-width: 0.8"/>
      </g>
     </g>
     <g id="text_45">
      <!-- 7.5 -->
      <g transform="translate(773.130265 828.954687) scale(0.16 -0.16)">
       <use xlink:href="#DejaVuSans-37"/>
       <use xlink:href="#DejaVuSans-2e" transform="translate(63.623047 0)"/>
       <use xlink:href="#DejaVuSans-35" transform="translate(95.410156 0)"/>
      </g>
     </g>
    </g>
    <g id="xtick_19">
     <g id="line2d_66">
      <g>
       <use xlink:href="#m786e932697" x="839.637634" y="809.797187" style="stroke: #000000; stroke-width: 0.8"/>
      </g>
     </g>
     <g id="text_46">
      <!-- 10.0 -->
      <g transform="translate(821.825134 828.954687) scale(0.16 -0.16)">
       <use xlink:href="#DejaVuSans-31"/>
       <use xlink:href="#DejaVuSans-30" transform="translate(63.623047 0)"/>
       <use xlink:href="#DejaVuSans-2e" transform="translate(127.246094 0)"/>
       <use xlink:href="#DejaVuSans-30" transform="translate(159.033203 0)"/>
      </g>
     </g>
    </g>
    <g id="xtick_20">
     <g id="line2d_67">
      <g>
       <use xlink:href="#m786e932697" x="893.422502" y="809.797187" style="stroke: #000000; stroke-width: 0.8"/>
      </g>
     </g>
     <g id="text_47">
      <!-- 12.5 -->
      <g transform="translate(875.610002 828.954687) scale(0.16 -0.16)">
       <use xlink:href="#DejaVuSans-31"/>
       <use xlink:href="#DejaVuSans-32" transform="translate(63.623047 0)"/>
       <use xlink:href="#DejaVuSans-2e" transform="translate(127.246094 0)"/>
       <use xlink:href="#DejaVuSans-35" transform="translate(159.033203 0)"/>
      </g>
     </g>
    </g>
    <g id="xtick_21">
     <g id="line2d_68">
      <g>
       <use xlink:href="#m786e932697" x="947.207371" y="809.797187" style="stroke: #000000; stroke-width: 0.8"/>
      </g>
     </g>
     <g id="text_48">
      <!-- 15.0 -->
      <g transform="translate(929.394871 828.954687) scale(0.16 -0.16)">
       <use xlink:href="#DejaVuSans-31"/>
       <use xlink:href="#DejaVuSans-35" transform="translate(63.623047 0)"/>
       <use xlink:href="#DejaVuSans-2e" transform="translate(127.246094 0)"/>
       <use xlink:href="#DejaVuSans-30" transform="translate(159.033203 0)"/>
      </g>
     </g>
    </g>
    <g id="xtick_22">
     <g id="line2d_69">
      <g>
       <use xlink:href="#m786e932697" x="1000.992239" y="809.797187" style="stroke: #000000; stroke-width: 0.8"/>
      </g>
     </g>
     <g id="text_49">
      <!-- 17.5 -->
      <g transform="translate(983.179739 828.954687) scale(0.16 -0.16)">
       <use xlink:href="#DejaVuSans-31"/>
       <use xlink:href="#DejaVuSans-37" transform="translate(63.623047 0)"/>
       <use xlink:href="#DejaVuSans-2e" transform="translate(127.246094 0)"/>
       <use xlink:href="#DejaVuSans-35" transform="translate(159.033203 0)"/>
      </g>
     </g>
    </g>
    <g id="xtick_23">
     <g id="line2d_70">
      <g>
       <use xlink:href="#m786e932697" x="1054.777107" y="809.797187" style="stroke: #000000; stroke-width: 0.8"/>
      </g>
     </g>
     <g id="text_50">
      <!-- 20.0 -->
      <g transform="translate(1036.964607 828.954687) scale(0.16 -0.16)">
       <use xlink:href="#DejaVuSans-32"/>
       <use xlink:href="#DejaVuSans-30" transform="translate(63.623047 0)"/>
       <use xlink:href="#DejaVuSans-2e" transform="translate(127.246094 0)"/>
       <use xlink:href="#DejaVuSans-30" transform="translate(159.033203 0)"/>
      </g>
     </g>
    </g>
    <g id="text_51">
     <!-- Bit Index (sorted) -->
     <g transform="translate(759.19066 848.439687) scale(0.16 -0.16)">
      <defs>
       <path id="DejaVuSans-49" d="M 628 4666 
L 1259 4666 
L 1259 0 
L 628 0 
L 628 4666 
z
" transform="scale(0.015625)"/>
       <path id="DejaVuSans-64" d="M 2906 2969 
L 2906 4863 
L 3481 4863 
L 3481 0 
L 2906 0 
L 2906 525 
Q 2725 213 2448 61 
Q 2172 -91 1784 -91 
Q 1150 -91 751 415 
Q 353 922 353 1747 
Q 353 2572 751 3078 
Q 1150 3584 1784 3584 
Q 2172 3584 2448 3432 
Q 2725 3281 2906 2969 
z
M 947 1747 
Q 947 1113 1208 752 
Q 1469 391 1925 391 
Q 2381 391 2643 752 
Q 2906 1113 2906 1747 
Q 2906 2381 2643 2742 
Q 2381 3103 1925 3103 
Q 1469 3103 1208 2742 
Q 947 2381 947 1747 
z
" transform="scale(0.015625)"/>
       <path id="DejaVuSans-78" d="M 3513 3500 
L 2247 1797 
L 3578 0 
L 2900 0 
L 1881 1375 
L 863 0 
L 184 0 
L 1544 1831 
L 300 3500 
L 978 3500 
L 1906 2253 
L 2834 3500 
L 3513 3500 
z
" transform="scale(0.015625)"/>
      </defs>
      <use xlink:href="#DejaVuSans-42"/>
      <use xlink:href="#DejaVuSans-69" transform="translate(68.603516 0)"/>
      <use xlink:href="#DejaVuSans-74" transform="translate(96.386719 0)"/>
      <use xlink:href="#DejaVuSans-20" transform="translate(135.595703 0)"/>
      <use xlink:href="#DejaVuSans-49" transform="translate(167.382812 0)"/>
      <use xlink:href="#DejaVuSans-6e" transform="translate(196.875 0)"/>
      <use xlink:href="#DejaVuSans-64" transform="translate(260.253906 0)"/>
      <use xlink:href="#DejaVuSans-65" transform="translate(323.730469 0)"/>
      <use xlink:href="#DejaVuSans-78" transform="translate(383.503906 0)"/>
      <use xlink:href="#DejaVuSans-20" transform="translate(442.683594 0)"/>
      <use xlink:href="#DejaVuSans-28" transform="translate(474.470703 0)"/>
      <use xlink:href="#DejaVuSans-73" transform="translate(513.484375 0)"/>
      <use xlink:href="#DejaVuSans-6f" transform="translate(565.583984 0)"/>
      <use xlink:href="#DejaVuSans-72" transform="translate(626.765625 0)"/>
      <use xlink:href="#DejaVuSans-74" transform="translate(667.878906 0)"/>
      <use xlink:href="#DejaVuSans-65" transform="translate(707.087891 0)"/>
      <use xlink:href="#DejaVuSans-64" transform="translate(768.611328 0)"/>
      <use xlink:href="#DejaVuSans-29" transform="translate(832.087891 0)"/>
     </g>
    </g>
   </g>
   <g id="matplotlib.axis_8">
    <g id="ytick_48">
     <g id="line2d_71">
      <g>
       <use xlink:href="#m05b68238bf" x="594.593773" y="809.797187" style="stroke: #000000; stroke-width: 0.8"/>
      </g>
     </g>
     <g id="text_52">
      <!-- 0 -->
      <g transform="translate(577.413773 815.875937) scale(0.16 -0.16)">
       <use xlink:href="#DejaVuSans-30"/>
      </g>
     </g>
    </g>
    <g id="ytick_49">
     <g id="line2d_72">
      <g>
       <use xlink:href="#m05b68238bf" x="594.593773" y="765.145558" style="stroke: #000000; stroke-width: 0.8"/>
      </g>
     </g>
     <g id="text_53">
      <!-- 50 -->
      <g transform="translate(567.233773 771.224308) scale(0.16 -0.16)">
       <use xlink:href="#DejaVuSans-35"/>
       <use xlink:href="#DejaVuSans-30" transform="translate(63.623047 0)"/>
      </g>
     </g>
    </g>
    <g id="ytick_50">
     <g id="line2d_73">
      <g>
       <use xlink:href="#m05b68238bf" x="594.593773" y="720.493929" style="stroke: #000000; stroke-width: 0.8"/>
      </g>
     </g>
     <g id="text_54">
      <!-- 100 -->
      <g transform="translate(557.053773 726.572679) scale(0.16 -0.16)">
       <use xlink:href="#DejaVuSans-31"/>
       <use xlink:href="#DejaVuSans-30" transform="translate(63.623047 0)"/>
       <use xlink:href="#DejaVuSans-30" transform="translate(127.246094 0)"/>
      </g>
     </g>
    </g>
    <g id="ytick_51">
     <g id="line2d_74">
      <g>
       <use xlink:href="#m05b68238bf" x="594.593773" y="675.8423" style="stroke: #000000; stroke-width: 0.8"/>
      </g>
     </g>
     <g id="text_55">
      <!-- 150 -->
      <g transform="translate(557.053773 681.92105) scale(0.16 -0.16)">
       <use xlink:href="#DejaVuSans-31"/>
       <use xlink:href="#DejaVuSans-35" transform="translate(63.623047 0)"/>
       <use xlink:href="#DejaVuSans-30" transform="translate(127.246094 0)"/>
      </g>
     </g>
    </g>
    <g id="ytick_52">
     <g id="line2d_75">
      <g>
       <use xlink:href="#m05b68238bf" x="594.593773" y="631.190671" style="stroke: #000000; stroke-width: 0.8"/>
      </g>
     </g>
     <g id="text_56">
      <!-- 200 -->
      <g transform="translate(557.053773 637.269421) scale(0.16 -0.16)">
       <use xlink:href="#DejaVuSans-32"/>
       <use xlink:href="#DejaVuSans-30" transform="translate(63.623047 0)"/>
       <use xlink:href="#DejaVuSans-30" transform="translate(127.246094 0)"/>
      </g>
     </g>
    </g>
    <g id="ytick_53">
     <g id="line2d_76">
      <g>
       <use xlink:href="#m05b68238bf" x="594.593773" y="586.539042" style="stroke: #000000; stroke-width: 0.8"/>
      </g>
     </g>
     <g id="text_57">
      <!-- 250 -->
      <g transform="translate(557.053773 592.617792) scale(0.16 -0.16)">
       <use xlink:href="#DejaVuSans-32"/>
       <use xlink:href="#DejaVuSans-35" transform="translate(63.623047 0)"/>
       <use xlink:href="#DejaVuSans-30" transform="translate(127.246094 0)"/>
      </g>
     </g>
    </g>
    <g id="ytick_54">
     <g id="line2d_77">
      <g>
       <use xlink:href="#m05b68238bf" x="594.593773" y="541.887413" style="stroke: #000000; stroke-width: 0.8"/>
      </g>
     </g>
     <g id="text_58">
      <!-- 300 -->
      <g transform="translate(557.053773 547.966163) scale(0.16 -0.16)">
       <use xlink:href="#DejaVuSans-33"/>
       <use xlink:href="#DejaVuSans-30" transform="translate(63.623047 0)"/>
       <use xlink:href="#DejaVuSans-30" transform="translate(127.246094 0)"/>
      </g>
     </g>
    </g>
    <g id="ytick_55">
     <g id="line2d_78">
      <g>
       <use xlink:href="#m05b68238bf" x="594.593773" y="497.235784" style="stroke: #000000; stroke-width: 0.8"/>
      </g>
     </g>
     <g id="text_59">
      <!-- 350 -->
      <g transform="translate(557.053773 503.314534) scale(0.16 -0.16)">
       <use xlink:href="#DejaVuSans-33"/>
       <use xlink:href="#DejaVuSans-35" transform="translate(63.623047 0)"/>
       <use xlink:href="#DejaVuSans-30" transform="translate(127.246094 0)"/>
      </g>
     </g>
    </g>
    <g id="text_60">
     <!-- Frequency -->
     <g transform="translate(549.726273 672.964687) rotate(-90) scale(0.16 -0.16)">
      <use xlink:href="#DejaVuSans-46"/>
      <use xlink:href="#DejaVuSans-72" transform="translate(50.269531 0)"/>
      <use xlink:href="#DejaVuSans-65" transform="translate(89.132812 0)"/>
      <use xlink:href="#DejaVuSans-71" transform="translate(150.65625 0)"/>
      <use xlink:href="#DejaVuSans-75" transform="translate(214.132812 0)"/>
      <use xlink:href="#DejaVuSans-65" transform="translate(277.511719 0)"/>
      <use xlink:href="#DejaVuSans-6e" transform="translate(339.035156 0)"/>
      <use xlink:href="#DejaVuSans-63" transform="translate(402.414062 0)"/>
      <use xlink:href="#DejaVuSans-79" transform="translate(457.394531 0)"/>
     </g>
    </g>
   </g>
   <g id="patch_120">
    <path d="M 594.593773 809.797187 
L 594.593773 453.477187 
" style="fill: none; stroke: #000000; stroke-width: 0.8; stroke-linejoin: miter; stroke-linecap: square"/>
   </g>
   <g id="patch_121">
    <path d="M 1063.167547 809.797187 
L 1063.167547 453.477187 
" style="fill: none; stroke: #000000; stroke-width: 0.8; stroke-linejoin: miter; stroke-linecap: square"/>
   </g>
   <g id="patch_122">
    <path d="M 594.593773 809.797187 
L 1063.167547 809.797187 
" style="fill: none; stroke: #000000; stroke-width: 0.8; stroke-linejoin: miter; stroke-linecap: square"/>
   </g>
   <g id="patch_123">
    <path d="M 594.593773 453.477187 
L 1063.167547 453.477187 
" style="fill: none; stroke: #000000; stroke-width: 0.8; stroke-linejoin: miter; stroke-linecap: square"/>
   </g>
   <g id="text_61">
    <!-- Top 20 Most Common Bits -->
    <g transform="translate(711.883473 447.477187) scale(0.18 -0.18)">
     <defs>
      <path id="DejaVuSans-54" d="M -19 4666 
L 3928 4666 
L 3928 4134 
L 2272 4134 
L 2272 0 
L 1638 0 
L 1638 4134 
L -19 4134 
L -19 4666 
z
" transform="scale(0.015625)"/>
      <path id="DejaVuSans-43" d="M 4122 4306 
L 4122 3641 
Q 3803 3938 3442 4084 
Q 3081 4231 2675 4231 
Q 1875 4231 1450 3742 
Q 1025 3253 1025 2328 
Q 1025 1406 1450 917 
Q 1875 428 2675 428 
Q 3081 428 3442 575 
Q 3803 722 4122 1019 
L 4122 359 
Q 3791 134 3420 21 
Q 3050 -91 2638 -91 
Q 1578 -91 968 557 
Q 359 1206 359 2328 
Q 359 3453 968 4101 
Q 1578 4750 2638 4750 
Q 3056 4750 3426 4639 
Q 3797 4528 4122 4306 
z
" transform="scale(0.015625)"/>
     </defs>
     <use xlink:href="#DejaVuSans-54"/>
     <use xlink:href="#DejaVuSans-6f" transform="translate(44.083984 0)"/>
     <use xlink:href="#DejaVuSans-70" transform="translate(105.265625 0)"/>
     <use xlink:href="#DejaVuSans-20" transform="translate(168.742188 0)"/>
     <use xlink:href="#DejaVuSans-32" transform="translate(200.529297 0)"/>
     <use xlink:href="#DejaVuSans-30" transform="translate(264.152344 0)"/>
     <use xlink:href="#DejaVuSans-20" transform="translate(327.775391 0)"/>
     <use xlink:href="#DejaVuSans-4d" transform="translate(359.5625 0)"/>
     <use xlink:href="#DejaVuSans-6f" transform="translate(445.841797 0)"/>
     <use xlink:href="#DejaVuSans-73" transform="translate(507.023438 0)"/>
     <use xlink:href="#DejaVuSans-74" transform="translate(559.123047 0)"/>
     <use xlink:href="#DejaVuSans-20" transform="translate(598.332031 0)"/>
     <use xlink:href="#DejaVuSans-43" transform="translate(630.119141 0)"/>
     <use xlink:href="#DejaVuSans-6f" transform="translate(699.943359 0)"/>
     <use xlink:href="#DejaVuSans-6d" transform="translate(761.125 0)"/>
     <use xlink:href="#DejaVuSans-6d" transform="translate(858.537109 0)"/>
     <use xlink:href="#DejaVuSans-6f" transform="translate(955.949219 0)"/>
     <use xlink:href="#DejaVuSans-6e" transform="translate(1017.130859 0)"/>
     <use xlink:href="#DejaVuSans-20" transform="translate(1080.509766 0)"/>
     <use xlink:href="#DejaVuSans-42" transform="translate(1112.296875 0)"/>
     <use xlink:href="#DejaVuSans-69" transform="translate(1180.900391 0)"/>
     <use xlink:href="#DejaVuSans-74" transform="translate(1208.683594 0)"/>
     <use xlink:href="#DejaVuSans-73" transform="translate(1247.892578 0)"/>
    </g>
   </g>
  </g>
 </g>
 <defs>
  <clipPath id="p44c4a1a554">
   <rect x="59.13" y="26.877187" width="468.573773" height="356.32"/>
  </clipPath>
  <clipPath id="pb9a1e09f7b">
   <rect x="594.593773" y="26.877187" width="468.573773" height="356.32"/>
  </clipPath>
  <clipPath id="p9ee1a1ce9a">
   <rect x="59.13" y="453.477187" width="468.573773" height="356.32"/>
  </clipPath>
  <clipPath id="pdbcf7740c9">
   <rect x="594.593773" y="453.477187" width="468.573773" height="356.32"/>
  </clipPath>
 </defs>
</svg>
